<svg width="345" height="81" viewBox="0 0 345 81" fill="none" xmlns="http://www.w3.org/2000/svg">
<path d="M330.47 4.01911V1H14.5299H13.7985H11.2388V4.01911H9.41045V7.5414H7.58209V9.55414V10.0573H5.75373V52.828H8.31343V55.344H10.8731V57.8599H13.4328V60.3758H330.836V58.3631H332.664V54.3376H334.858V50.8153H337.052V11.0637V10.5605V6.53503H334.127V4.01911H330.47Z" fill="#FDF3D8"/>
<path d="M337.052 11.0637V50.8153H334.858V54.3376H332.664V58.3631H330.836V60.3758H13.4328V57.8599H10.8731V55.344H8.31343V52.828H5.75373V10.0573H7.58209V9.55414H3.92537V13.5796H2.46269V17.3937H1V62.8917H2.82836V65.9108H4.65672V67.9236H6.48507V69.9363H9.04478V71.9491H333.761V69.9363H337.052V67.4204H338.881V64.4013H341.075V60.879H343.269V57.3567V17.6051H341.44V14.586H339.612V10.5605H337.052V11.0637Z" fill="#8C6F20"/>
<path d="M343.269 60.879H341.075V64.4013H338.881V67.4204H337.052V69.9363H333.761V71.9491H9.04478V69.9363H6.48507V67.9236H4.65672V65.9108H2.82836V62.8917H1V70.9427V71.1943V71.4459V72.4522V73.4586H3.5597V76.9809H7.21642V80H334.698V76.9809H336.687V74.9682H339.612V71.9491H342.172V68.9299H344V58.3631L343.269 57.3567V60.879Z" fill="#553E00"/>
<path d="M337.052 50.8153V11.0637V10.5605M337.052 50.8153H334.858V54.3376H332.664V58.3631H330.836V60.3758H13.4328V57.8599H10.8731V55.344H8.31343V52.828H5.75373V10.0573H7.58209V9.55414M337.052 50.8153L337.418 58.3631H336.321V60.879H334.858V63.3949H332.664V65.4076H330.104V67.4204H11.2388V63.3949H9.04478V60.3758H7.58209V57.8599H6.85075H5.75373V53.3312M11.2388 1V4.01911H9.41045V7.5414H7.58209V9.55414M11.2388 1H14.5299M11.2388 1H13.7985H14.5299M14.5299 1H330.47V4.01911H334.127V6.53503H337.052V10.5605M337.052 10.5605H339.612V14.586H341.44V17.6051H343.269V57.3567M1 62.8917H2.82836V65.9108H4.65672V67.9236H6.48507V69.9363H9.04478V71.9491H333.761V69.9363H337.052V67.4204H338.881V64.4013H341.075V60.879H343.269V57.3567M1 62.8917V17.3937H2.46269V13.5796H3.92537V9.55414H7.58209M1 62.8917V70.9427V71.1943M1 72.4522V71.1943M1 72.4522V71.4459V71.1943M1 72.4522V73.4586M1 71.1943V73.4586M1 73.4586H3.5597V76.9809H7.21642V80H334.698V76.9809H336.687V74.9682H339.612V71.9491H342.172V68.9299H344V58.3631L343.269 57.3567" stroke="black" stroke-width="2"/>
</svg>
