<svg width="302" height="79" viewBox="0 0 302 79" fill="none" xmlns="http://www.w3.org/2000/svg">
<g filter="url(#filter0_d_1404_11485)">
<path d="M21.5 19.5H16V58H21.5V63.5H281V58H286.5V19.5H281V16.5H21.5V19.5Z" fill="#FEEAA9"/>
<path d="M16 7.5H9V14H3V64.5H9V58V19.5H16V14.5V14V13.5H286.5V19.5H293V58H286.5H281V63.5H21.5V58H16H15.5H9V64.5H9.5V65H15.5V70V70.5V76H286.5V70.5V65H293V64.5H299V13.5H293V7.5H287V2.5H16V7.5Z" fill="#CFA462"/>
<path d="M9 19.5V58H15.5H16V19.5H9Z" fill="#E7C57D"/>
<path d="M21.5 19.5V16.5H281V19.5H286.5V13.5H16V14V14.5V19.5H21.5Z" fill="#E7C57D"/>
<path d="M293 58V19.5H286.5V58H293Z" fill="#E7C57D"/>
<path d="M9.5 70H15.5V65H9.5V70Z" fill="#CFA462"/>
</g>
<path d="M39.25 45.75V43.5H37V41.25H41.5V43.5H48.25V39H39.25V36.75H37V32.25H39.25V30H50.5V32.25H52.75V34.5H48.25V32.25H41.5V36.75H50.5V39H52.75V43.5H50.5V45.75H39.25ZM55 45.75V30H70.75V32.25H59.5V36.75H68.5V39H59.5V43.5H70.75V45.75H55ZM75.25 45.75V30H79.75V43.5H88.75V45.75H75.25ZM91 45.75V30H106.75V32.25H95.5V36.75H104.5V39H95.5V43.5H106.75V45.75H91ZM113.5 45.75V43.5H111.25V41.25H109V34.5H111.25V32.25H113.5V30H122.5V32.25H124.75V34.5H120.25V32.25H115.75V34.5H113.5V41.25H115.75V43.5H120.25V41.25H124.75V43.5H122.5V45.75H113.5ZM133.75 45.75V32.25H129.25V30H142.75V32.25H138.25V45.75H133.75ZM169.75 45.75V32.25H165.25V30H178.75V32.25H174.25V45.75H169.75ZM181 45.75V30H196.75V32.25H185.5V36.75H194.5V39H185.5V43.5H196.75V45.75H181ZM199 45.75V30H203.5V32.25H205.75V34.5H208V36.75H210.25V30H214.75V45.75H210.25V41.25H208V39H205.75V36.75H203.5V45.75H199ZM219.25 45.75V43.5H217V30H221.5V43.5H228.25V30H232.75V43.5H230.5V45.75H219.25ZM235 45.75V30H248.5V32.25H250.75V39H246.25V41.25H248.5V43.5H250.75V45.75H244V43.5H241.75V41.25H239.5V45.75H235ZM239.5 39H244V36.75H246.25V32.25H239.5V39ZM253 45.75V30H268.75V32.25H257.5V36.75H266.5V39H257.5V43.5H268.75V45.75H253Z" fill="#6B3E11"/>
<path d="M16 7.5V2.5H287V7H293V13H299V64.5H286.5V76H15.5V70H9.5V64.5H3V14H9V7.5H16Z" stroke="#6B3E11" stroke-width="3"/>
<defs>
<filter id="filter0_d_1404_11485" x="0.7" y="0.2" width="300.6" height="78.1" filterUnits="userSpaceOnUse" color-interpolation-filters="sRGB">
<feFlood flood-opacity="0" result="BackgroundImageFix"/>
<feColorMatrix in="SourceAlpha" type="matrix" values="0 0 0 0 0 0 0 0 0 0 0 0 0 0 0 0 0 0 127 0" result="hardAlpha"/>
<feOffset/>
<feGaussianBlur stdDeviation="1.15"/>
<feComposite in2="hardAlpha" operator="out"/>
<feColorMatrix type="matrix" values="0 0 0 0 0.180392 0 0 0 0 0.12549 0 0 0 0 0.0666667 0 0 0 1 0"/>
<feBlend mode="normal" in2="BackgroundImageFix" result="effect1_dropShadow_1404_11485"/>
<feBlend mode="normal" in="SourceGraphic" in2="effect1_dropShadow_1404_11485" result="shape"/>
</filter>
</defs>
</svg>
