<svg width="1516" height="983" viewBox="0 0 1516 983" fill="none" xmlns="http://www.w3.org/2000/svg">
  <!-- Vertical lines -->
  <g>
    <line x1="0.5" y1="982.018" x2="0.5" y2="-0.000244141" stroke="#A6D2D3"/>
    <line x1="41.4453" y1="982.018" x2="41.4453" y2="-0.000244141" stroke="#A6D2D3"/>
    <line x1="82.3926" y1="982.018" x2="82.3926" y2="-0.000244141" stroke="#A6D2D3"/>
    <line x1="123.338" y1="982.018" x2="123.338" y2="-0.000244141" stroke="#A6D2D3"/>
    <line x1="164.283" y1="982.018" x2="164.283" y2="-0.000244141" stroke="#A6D2D3"/>
    <line x1="205.23" y1="982.018" x2="205.23" y2="-0.000244141" stroke="#A6D2D3"/>
    <line x1="246.176" y1="982.018" x2="246.176" y2="-0.000244141" stroke="#A6D2D3"/>
    <line x1="287.121" y1="982.018" x2="287.121" y2="-0.000244141" stroke="#A6D2D3"/>
    <line x1="328.068" y1="982.018" x2="328.068" y2="-0.000244141" stroke="#A6D2D3"/>
    <line x1="369.014" y1="982.018" x2="369.014" y2="-0.000244141" stroke="#A6D2D3"/>
    <line x1="409.959" y1="982.018" x2="409.959" y2="-0.000244141" stroke="#A6D2D3"/>
    <line x1="450.906" y1="982.018" x2="450.906" y2="-0.000244141" stroke="#A6D2D3"/>
    <line x1="491.852" y1="982.018" x2="491.852" y2="-0.000244141" stroke="#A6D2D3"/>
    <line x1="532.797" y1="982.018" x2="532.797" y2="-0.000244141" stroke="#A6D2D3"/>
    <line x1="573.744" y1="982.018" x2="573.744" y2="-0.000244141" stroke="#A6D2D3"/>
    <line x1="614.689" y1="982.018" x2="614.689" y2="-0.000244141" stroke="#A6D2D3"/>
    <line x1="655.635" y1="982.018" x2="655.635" y2="-0.000244141" stroke="#A6D2D3"/>
    <line x1="696.582" y1="982.018" x2="696.582" y2="-0.000244141" stroke="#A6D2D3"/>
    <line x1="737.527" y1="982.018" x2="737.527" y2="-0.000244141" stroke="#A6D2D3"/>
    <line x1="778.473" y1="982.018" x2="778.473" y2="-0.000244141" stroke="#A6D2D3"/>
    <line x1="819.418" y1="982.018" x2="819.418" y2="-0.000244141" stroke="#A6D2D3"/>
    <line x1="860.365" y1="982.018" x2="860.365" y2="-0.000244141" stroke="#A6D2D3"/>
    <line x1="901.311" y1="982.018" x2="901.311" y2="-0.000244141" stroke="#A6D2D3"/>
    <line x1="942.256" y1="982.018" x2="942.256" y2="-0.000244141" stroke="#A6D2D3"/>
    <line x1="983.203" y1="982.018" x2="983.203" y2="-0.000244141" stroke="#A6D2D3"/>
    <line x1="1024.15" y1="982.018" x2="1024.15" y2="-0.000244141" stroke="#A6D2D3"/>
    <line x1="1065.09" y1="982.018" x2="1065.09" y2="-0.000244141" stroke="#A6D2D3"/>
    <line x1="1106.04" y1="982.018" x2="1106.04" y2="-0.000244141" stroke="#A6D2D3"/>
    <line x1="1146.99" y1="982.018" x2="1146.99" y2="-0.000244141" stroke="#A6D2D3"/>
    <line x1="1187.93" y1="982.018" x2="1187.93" y2="-0.000244141" stroke="#A6D2D3"/>
    <line x1="1228.88" y1="982.018" x2="1228.88" y2="-0.000244141" stroke="#A6D2D3"/>
    <line x1="1269.82" y1="982.018" x2="1269.82" y2="-0.000244141" stroke="#A6D2D3"/>
    <line x1="1310.77" y1="982.018" x2="1310.77" y2="-0.000244141" stroke="#A6D2D3"/>
    <line x1="1351.72" y1="982.018" x2="1351.72" y2="-0.000244141" stroke="#A6D2D3"/>
    <line x1="1392.66" y1="982.018" x2="1392.66" y2="-0.000244141" stroke="#A6D2D3"/>
    <line x1="1433.61" y1="982.018" x2="1433.61" y2="-0.000244141" stroke="#A6D2D3"/>
    <line x1="1474.55" y1="982.018" x2="1474.55" y2="-0.000244141" stroke="#A6D2D3"/>
    <line x1="1515.5" y1="982.018" x2="1515.5" y2="-0.000244141" stroke="#A6D2D3"/>
  </g>
  <!-- Horizontal lines -->
  <g>
    <line x1="1" y1="30.501" x2="1516" y2="30.501" stroke="#A6D2D3"/>
    <line x1="1" y1="70.501" x2="1516" y2="70.501" stroke="#A6D2D3"/>
    <line x1="1" y1="110.501" x2="1516" y2="110.501" stroke="#A6D2D3"/>
    <line x1="1" y1="150.501" x2="1516" y2="150.501" stroke="#A6D2D3"/>
    <line x1="1" y1="190.501" x2="1516" y2="190.501" stroke="#A6D2D3"/>
    <line x1="1" y1="230.501" x2="1516" y2="230.501" stroke="#A6D2D3"/>
    <line x1="1" y1="270.501" x2="1516" y2="270.501" stroke="#A6D2D3"/>
    <line x1="1" y1="310.501" x2="1516" y2="310.501" stroke="#A6D2D3"/>
    <line x1="1" y1="350.501" x2="1516" y2="350.501" stroke="#A6D2D3"/>
    <line x1="1" y1="390.501" x2="1516" y2="390.501" stroke="#A6D2D3"/>
    <line x1="1" y1="430.501" x2="1516" y2="430.501" stroke="#A6D2D3"/>
    <line x1="1" y1="470.501" x2="1516" y2="470.501" stroke="#A6D2D3"/>
    <line x1="1" y1="510.501" x2="1516" y2="510.501" stroke="#A6D2D3"/>
    <line x1="1" y1="550.501" x2="1516" y2="550.501" stroke="#A6D2D3"/>
    <line x1="1" y1="590.501" x2="1516" y2="590.501" stroke="#A6D2D3"/>
    <line x1="1" y1="630.501" x2="1516" y2="630.501" stroke="#A6D2D3"/>
    <line x1="1" y1="670.501" x2="1516" y2="670.501" stroke="#A6D2D3"/>
    <line x1="1" y1="710.501" x2="1516" y2="710.501" stroke="#A6D2D3"/>
    <line x1="1" y1="750.501" x2="1516" y2="750.501" stroke="#A6D2D3"/>
    <line x1="1" y1="790.501" x2="1516" y2="790.501" stroke="#A6D2D3"/>
    <line x1="1" y1="830.501" x2="1516" y2="830.501" stroke="#A6D2D3"/>
    <line x1="1" y1="870.501" x2="1516" y2="870.501" stroke="#A6D2D3"/>
    <line x1="1" y1="910.501" x2="1516" y2="910.501" stroke="#A6D2D3"/>
    <line x1="1" y1="950.501" x2="1516" y2="950.501" stroke="#A6D2D3"/>
  </g>
</svg> 