<svg width="327" height="279" viewBox="0 0 327 279" fill="none" xmlns="http://www.w3.org/2000/svg">
<rect x="9.58984" y="19.2363" width="303.25" height="243.078" rx="26" fill="#FFD782" stroke="black" stroke-width="4"/>
<rect x="13.0898" y="22.7363" width="296.25" height="214.094" rx="22.5" fill="#FFF4DD" stroke="#E0B252" stroke-width="3"/>
<path fill-rule="evenodd" clip-rule="evenodd" d="M167.572 259.613V261.838H172.261V264.064H181.712V261.838H184.056V250.642H181.712V241.811H184.056V239.585H186.327V237.36H188.745V235.135H191.09V232.909H193.434V226.164H191.016V223.939H186.327V221.713H172.261V217.332H169.843V212.951H167.499V208.362H165.228V206.136H162.883V203.98H158.268V206.275H155.777V208.501H153.579V212.951H151.161V217.263H148.743V221.713H134.677V224.078H129.915V226.234H127.57V232.979H130.208V234.926H132.406V237.36H134.677V239.655H137.021V241.811H139.585V250.712H137.021V261.908H139.585V263.994H148.89V261.769H153.579V259.544H158.341V257.388H162.883V259.544L167.572 259.613ZM162.883 250.712H158.341V252.937H155.923V255.163H153.579V257.388H148.89V259.544H144.128V257.388H141.637V248.487C142.467 248.463 144.128 248.431 144.128 248.487V241.811H141.783V239.655H139.292V237.36H137.021V235.413H134.677V232.979H132.186V228.459H134.677V227.833V227.346V227.033V226.234H139.292V223.939H151.161V221.713H153.579V217.332H155.777V212.951H158.268V210.656H162.956V212.951H165.228V217.332H167.499L167.719 221.713H169.843V223.939H179.367V226.512H184.056V228.389H186.327V233.049H184.056V235.135H181.712V237.36H179.367V239.655H177.096V248.695H179.367V257.388H177.096V259.613H172.261V257.388H167.572V254.954H165.154V253.007H162.883V250.712Z" fill="#F09020"/>
<path d="M158.268 212.951H155.777V217.332H153.579V221.713H151.161V223.939H155.777V221.713H158.194V219.627H160.466V226.234H158.194V228.459H155.85V230.684H153.505V232.909H144.128L144.055 235.135H141.783V232.909H144.128V230.684H141.783V228.459H144.128V226.234H151.161V223.939H139.292V226.234H134.677V227.033V227.346V227.833V228.459V232.979L137.021 232.949V235.413H139.292V237.36H141.783V239.655H144.128V241.811H146.472V244.106H158.194V241.811H162.956V239.585H165.081V237.291H167.719V223.939H165.228V219.627H162.956V217.263H160.466V215.177H158.268V212.951Z" fill="#FBF86B"/>
<path fill-rule="evenodd" clip-rule="evenodd" d="M158.341 250.712H162.883V253.007H165.154V254.954H167.572V257.388H172.261V259.613H177.096V257.388H179.367V248.695H177.096V239.655H179.367V237.36H181.712V235.135H184.056V233.049H186.327V228.389H184.056V226.512H179.367V223.939H169.843V221.713H167.719L167.499 217.332H165.228V212.951H162.956V210.656H158.268V212.951V215.177H160.466V217.263H162.956V219.627H165.228V223.939H167.719V237.291H165.081V239.585H162.956V241.811H158.194V244.106H146.472V241.811H144.128V239.655H141.783V237.36H139.292V235.413H137.021V232.949L134.677 232.979V228.459H132.186V232.979H134.677V235.413H137.021V237.36H139.292V239.655H141.783V241.811H144.128V248.487C144.128 248.431 142.467 248.463 141.637 248.487V257.388H144.128V259.544H148.89V257.388H153.579V255.163H155.923V252.937H158.341V250.712ZM141.783 232.909H144.128L144.055 235.135H141.783V232.909Z" fill="#FEDD20"/>
<path d="M160.466 219.627H158.194V221.713H155.777V223.939H151.161V226.234H144.128V228.459H141.783V230.684H144.128V232.909H153.505V230.684H155.85V228.459H158.194V226.234H160.466V219.627Z" fill="#FEFEDC"/>
<path fill-rule="evenodd" clip-rule="evenodd" d="M112.267 270.14L112.571 272.052L116.599 271.462L116.903 273.373L125.022 272.183L124.718 270.272L126.732 269.976L125.201 260.359L123.187 260.654L121.979 253.067L123.993 252.772L123.689 250.86L125.64 250.574L125.336 248.663L127.412 248.358L127.108 246.447L129.122 246.151L128.818 244.24L130.832 243.945L129.909 238.15L127.833 238.454L127.528 236.543L123.5 237.133L123.196 235.222L111.112 236.993L110.513 233.229L108.436 233.534L107.837 229.77L105.824 230.065L105.196 226.123L103.245 226.409L102.941 224.497L100.927 224.792L100.632 222.94L96.667 223.521L96.9808 225.493L94.841 225.806L95.1452 227.718L93.2572 227.995L93.8657 231.818L91.7888 232.123L92.3783 235.826L90.3015 236.131L90.91 239.954L78.8263 241.725L79.1496 243.756L75.0588 244.356L75.3536 246.208L73.3396 246.503L74.2619 252.298L76.5276 251.965L76.7939 253.638L78.6819 253.361L79.0147 255.452L80.9657 255.166L81.2795 257.138L83.2935 256.842L83.5882 258.694L85.791 258.371L87.0081 266.018L84.8053 266.341L86.3362 275.959L88.539 275.636L88.8242 277.428L96.8171 276.256L96.5128 274.345L100.541 273.754L100.236 271.843L104.327 271.243L104.032 269.391L107.935 268.819L108.229 270.671L112.267 270.14ZM107.022 263.084L103.12 263.656L103.424 265.568L101.347 265.872L101.651 267.784L99.6374 268.079L99.9417 269.991L95.9138 270.581L96.2085 272.433L92.1177 273.033L91.8229 271.181L89.6831 271.494L88.466 263.848C89.1761 263.724 90.5982 263.487 90.6058 263.534L89.693 257.799L87.6791 258.095L87.3843 256.243L85.2445 256.556L84.9307 254.585L82.9797 254.871L82.7135 253.198L80.6995 253.494L80.3667 251.403L78.2269 251.716L77.6088 247.833L79.7487 247.52L79.6631 246.982L79.5965 246.564L79.5537 246.295L79.4444 245.608L83.4093 245.027L83.0956 243.056L93.2912 241.561L92.9869 239.65L95.0638 239.345L94.4647 235.582L96.3528 235.305L95.7538 231.541L97.8936 231.228L97.5798 229.256L101.608 228.666L101.921 230.637L103.872 230.351L104.472 234.115L106.423 233.829L107.21 237.565L109.036 237.297L109.34 239.209L117.521 238.01L117.873 240.22L121.901 239.629L122.158 241.242L124.109 240.956L124.746 244.959L122.795 245.245L123.08 247.037L121.066 247.332L121.371 249.244L119.357 249.539L119.67 251.51L117.719 251.796L118.955 259.562L120.907 259.276L122.095 266.744L120.144 267.03L120.448 268.941L116.295 269.55L115.99 267.638L111.962 268.229L111.63 266.138L109.553 266.442L109.286 264.77L107.335 265.056L107.022 263.084Z" fill="#F09020"/>
<path d="M97.8936 231.228L95.7538 231.541L96.3528 235.305L94.4647 235.582L95.0638 239.345L92.9869 239.65L93.2912 241.561L97.2561 240.98L96.9519 239.068L99.0287 238.764L98.7435 236.972L100.694 236.686L101.598 242.361L99.6468 242.647L99.9511 244.559L97.9371 244.854L98.2414 246.765L96.2274 247.061L96.5317 248.972L88.4759 250.153L88.7173 252.074L86.7663 252.36L86.462 250.448L88.4759 250.153L88.1717 248.241L86.1577 248.537L85.8534 246.625L87.8674 246.33L87.5631 244.418L93.6049 243.533L93.2912 241.561L83.0956 243.056L83.4093 245.027L79.4444 245.608L79.5537 246.295L79.5965 246.564L79.6631 246.982L79.7487 247.52L80.3667 251.403L82.3766 251.082L82.7135 253.198L84.6645 252.912L84.9307 254.585L87.0705 254.271L87.3843 256.243L89.3983 255.948L89.693 257.799L91.707 257.504L92.0207 259.476L102.09 258L101.777 256.028L105.868 255.429L105.563 253.517L107.388 253.25L107.075 251.278L109.34 250.946L107.515 239.476L105.375 239.79L104.785 236.086L102.834 236.372L102.511 234.341L100.371 234.655L100.086 232.863L98.1979 233.139L97.8936 231.228Z" fill="#FBF86B"/>
<path fill-rule="evenodd" clip-rule="evenodd" d="M103.12 263.656L107.022 263.084L107.335 265.056L109.286 264.77L109.553 266.442L111.63 266.138L111.962 268.229L115.99 267.638L116.295 269.55L120.448 268.941L120.144 267.03L122.095 266.744L120.907 259.276L118.955 259.562L117.719 251.796L119.67 251.51L119.357 249.539L121.371 249.244L121.066 247.332L123.08 247.037L122.795 245.245L124.746 244.959L124.109 240.956L122.158 241.242L121.901 239.629L117.873 240.22L117.521 238.01L109.34 239.209L109.036 237.297L107.21 237.565L106.423 233.829L104.472 234.115L103.872 230.351L101.921 230.637L101.608 228.666L97.5798 229.256L97.8936 231.228L98.1979 233.139L100.086 232.863L100.371 234.655L102.511 234.341L102.834 236.372L104.785 236.086L105.375 239.79L107.515 239.476L109.34 250.946L107.075 251.278L107.388 253.25L105.563 253.517L105.868 255.429L101.777 256.028L102.09 258L92.0207 259.476L91.707 257.504L89.693 257.799L89.3983 255.948L87.3843 256.243L87.0705 254.271L84.9307 254.585L84.6645 252.912L82.7135 253.198L82.3766 251.082L80.3667 251.403L79.7487 247.52L77.6088 247.833L78.2269 251.716L80.3667 251.403L80.6995 253.494L82.7135 253.198L82.9797 254.871L84.9307 254.585L85.2445 256.556L87.3843 256.243L87.6791 258.095L89.693 257.799L90.6058 263.534C90.5982 263.487 89.1761 263.724 88.466 263.848L89.6831 271.494L91.8229 271.181L92.1177 273.033L96.2085 272.433L95.9138 270.581L99.9417 269.991L99.6374 268.079L101.651 267.784L101.347 265.872L103.424 265.568L103.12 263.656ZM86.462 250.448L88.4759 250.153L88.7173 252.074L86.7663 252.36L86.462 250.448Z" fill="#FEDD20"/>
<path d="M100.694 236.686L98.7435 236.972L99.0287 238.764L96.9519 239.068L97.2561 240.98L93.2912 241.561L93.6049 243.533L87.5631 244.418L87.8674 246.33L85.8534 246.625L86.1577 248.537L88.1717 248.241L88.4759 250.153L96.5317 248.972L96.2274 247.061L98.2414 246.765L97.9371 244.854L99.9511 244.559L99.6468 242.647L101.598 242.361L100.694 236.686Z" fill="#FEFEDC"/>
<path fill-rule="evenodd" clip-rule="evenodd" d="M210.53 270.14L210.226 272.052L206.198 271.462L205.894 273.373L197.775 272.183L198.079 270.272L196.065 269.976L197.596 260.359L199.61 260.654L200.818 253.067L198.804 252.772L199.108 250.86L197.157 250.574L197.461 248.663L195.384 248.358L195.689 246.447L193.675 246.151L193.979 244.24L191.965 243.945L192.887 238.15L194.964 238.454L195.269 236.543L199.297 237.133L199.601 235.222L211.684 236.993L212.283 233.229L214.36 233.534L214.959 229.77L216.973 230.065L217.601 226.123L219.552 226.409L219.856 224.497L221.87 224.792L222.165 222.94L226.13 223.521L225.816 225.493L227.956 225.806L227.652 227.718L229.54 227.995L228.931 231.818L231.008 232.123L230.419 235.826L232.495 236.131L231.887 239.954L243.971 241.725L243.647 243.756L247.738 244.356L247.443 246.208L249.457 246.503L248.535 252.298L246.269 251.965L246.003 253.638L244.115 253.361L243.782 255.452L241.831 255.166L241.517 257.138L239.503 256.842L239.209 258.694L237.006 258.371L235.789 266.018L237.992 266.341L236.461 275.959L234.258 275.636L233.973 277.428L225.98 276.256L226.284 274.345L222.256 273.754L222.56 271.843L218.47 271.243L218.764 269.391L214.862 268.819L214.568 270.671L210.53 270.14ZM215.775 263.084L219.677 263.656L219.373 265.568L221.45 265.872L221.146 267.784L223.159 268.079L222.855 269.991L226.883 270.581L226.588 272.433L230.679 273.033L230.974 271.181L233.114 271.494L234.331 263.848C233.621 263.724 232.199 263.487 232.191 263.534L233.104 257.799L235.118 258.095L235.413 256.243L237.552 256.556L237.866 254.585L239.817 254.871L240.083 253.198L242.097 253.494L242.43 251.403L244.57 251.716L245.188 247.833L243.048 247.52L243.134 246.982L243.2 246.564L243.243 246.295L243.352 245.608L239.388 245.027L239.701 243.056L229.506 241.561L229.81 239.65L227.733 239.345L228.332 235.582L226.444 235.305L227.043 231.541L224.903 231.228L225.217 229.256L221.189 228.666L220.875 230.637L218.924 230.351L218.325 234.115L216.374 233.829L215.586 237.565L213.761 237.297L213.457 239.209L205.275 238.01L204.924 240.22L200.896 239.629L200.639 241.242L198.688 240.956L198.051 244.959L200.002 245.245L199.717 247.037L201.731 247.332L201.426 249.244L203.44 249.539L203.126 251.51L205.077 251.796L203.841 259.562L201.89 259.276L200.702 266.744L202.653 267.03L202.349 268.941L206.502 269.55L206.807 267.638L210.834 268.229L211.167 266.138L213.244 266.442L213.51 264.77L215.461 265.056L215.775 263.084Z" fill="#F09020"/>
<path d="M224.903 231.228L227.043 231.541L226.444 235.305L228.332 235.582L227.733 239.345L229.81 239.65L229.506 241.561L225.541 240.98L225.845 239.068L223.768 238.764L224.053 236.972L222.102 236.686L221.199 242.361L223.15 242.647L222.846 244.559L224.86 244.854L224.555 246.765L226.569 247.061L226.265 248.972L234.321 250.153L234.08 252.074L236.031 252.36L236.335 250.448L234.321 250.153L234.625 248.241L236.639 248.537L236.943 246.625L234.929 246.33L235.234 244.418L229.192 243.533L229.506 241.561L239.701 243.056L239.388 245.027L243.352 245.608L243.243 246.295L243.2 246.564L243.134 246.982L243.048 247.52L242.43 251.403L240.42 251.082L240.083 253.198L238.132 252.912L237.866 254.585L235.726 254.271L235.413 256.243L233.399 255.948L233.104 257.799L231.09 257.504L230.776 259.476L220.706 258L221.02 256.028L216.929 255.429L217.234 253.517L215.408 253.25L215.722 251.278L213.457 250.946L215.282 239.476L217.422 239.79L218.012 236.086L219.963 236.372L220.286 234.341L222.426 234.655L222.711 232.863L224.599 233.139L224.903 231.228Z" fill="#FBF86B"/>
<path fill-rule="evenodd" clip-rule="evenodd" d="M219.677 263.656L215.775 263.084L215.461 265.056L213.51 264.77L213.244 266.442L211.167 266.138L210.834 268.229L206.807 267.638L206.502 269.55L202.349 268.941L202.653 267.03L200.702 266.744L201.89 259.276L203.841 259.562L205.077 251.796L203.126 251.51L203.44 249.539L201.426 249.244L201.731 247.332L199.717 247.037L200.002 245.245L198.051 244.959L198.688 240.956L200.639 241.242L200.896 239.629L204.924 240.22L205.275 238.01L213.457 239.209L213.761 237.297L215.586 237.565L216.374 233.829L218.325 234.115L218.924 230.351L220.875 230.637L221.189 228.666L225.217 229.256L224.903 231.228L224.599 233.139L222.711 232.863L222.426 234.655L220.286 234.341L219.963 236.372L218.012 236.086L217.422 239.79L215.282 239.476L213.457 250.946L215.722 251.278L215.408 253.25L217.234 253.517L216.929 255.429L221.02 256.028L220.706 258L230.776 259.476L231.09 257.504L233.104 257.799L233.399 255.948L235.413 256.243L235.726 254.271L237.866 254.585L238.132 252.912L240.083 253.198L240.42 251.082L242.43 251.403L243.048 247.52L245.188 247.833L244.57 251.716L242.43 251.403L242.097 253.494L240.083 253.198L239.817 254.871L237.866 254.585L237.552 256.556L235.413 256.243L235.118 258.095L233.104 257.799L232.191 263.534C232.199 263.487 233.621 263.724 234.331 263.848L233.114 271.494L230.974 271.181L230.679 273.033L226.588 272.433L226.883 270.581L222.855 269.991L223.159 268.079L221.146 267.784L221.45 265.872L219.373 265.568L219.677 263.656ZM236.335 250.448L234.321 250.153L234.08 252.074L236.031 252.36L236.335 250.448Z" fill="#FEDD20"/>
<path d="M222.102 236.686L224.053 236.972L223.768 238.764L225.845 239.068L225.541 240.98L229.506 241.561L229.192 243.533L235.234 244.418L234.929 246.33L236.943 246.625L236.639 248.537L234.625 248.241L234.321 250.153L226.265 248.972L226.569 247.061L224.555 246.765L224.86 244.854L222.846 244.559L223.15 242.647L221.199 242.361L222.102 236.686Z" fill="#FEFEDC"/>
<g filter="url(#filter0_d_1404_11059)">
<path d="M267.886 2H53.1136V5.43503H42.375V10.2441H36.6477V15.0531H33.0682V22.6102H29.4886V28.7932V46.6554H33.7841V50.0904H38.7955V54.2124H48.8182H51.6818V50.0904H59.5568V46.6554H66.7159H254.284H262.875V50.0904H274.33V52.8384H275.761H283.636H285.784V48.7164H289.364V45.2814V29.4802V23.2972H286.5V15.0531H283.636V10.2441H280.057V6.80904H275.761V2.68701H271.466L267.886 2Z" fill="#FED782"/>
<path d="M262.875 50.0904V46.6554H254.284V58.3345H257.864H262.159V54.8994H272.182L274.33 54.2124L275.761 52.8384H274.33V50.0904H262.875Z" fill="#AE741A"/>
<path d="M285.784 52.8384H283.636H275.761L274.33 54.2124L272.182 54.8994H262.159V58.3345H257.864V63.1435H264.307V67.2655H280.773V63.1435H289.364V59.7085H304.398V63.1435H309.409V66.5785H311.557H318V60.3955H314.42V53.5254H310.841V49.4034H305.83V43.2203H308.693V38.4113H311.557V34.9763H315.852V29.4802H306.545V25.3582H296.523V29.4802H289.364V45.2814V48.7164H285.784V52.8384Z" fill="#CE9E1D"/>
<path d="M51.6818 50.0904V54.2124H48.8182L50.9659 54.8994H58.125V58.3345H66L66.7159 46.6554H59.5568V50.0904H51.6818Z" fill="#A18B52"/>
<path d="M33.7841 46.6554H29.4886V28.7932H25.9091V25.3582H15.1705V29.4802H4.43182V35.6633H9.44318V39.0983H13.7386V43.9073V50.0904H10.1591V55.5864V59.0215H3V66.5785H15.1705V62.4565H19.4659V59.0215H33.0682V63.8305H40.6157V67.9525H58.125V63.8305H66V58.3345H58.125V54.8994H50.9659L48.8182 54.2124H38.7955V50.0904H33.7841V46.6554Z" fill="#CE9E1D"/>
<path d="M289.364 29.4802V45.2814V48.7164H285.784V52.8384H283.636H275.761M289.364 29.4802V23.2972H286.5V15.0531H283.636V10.2441H280.057V6.80904H275.761V2.68701H271.466L267.886 2H53.1136V5.43503H42.375V10.2441H36.6477V15.0531H33.0682V22.6102H29.4886V28.7932M289.364 29.4802H296.523V25.3582H306.545V29.4802H315.852V34.9763H311.557V38.4113H308.693V43.2203H305.83V49.4034H310.841V53.5254H314.42V60.3955H318V66.5785H311.557H309.409V63.1435H304.398V59.7085H289.364V63.1435H280.773V67.2655H264.307V63.1435H257.864V58.3345M257.864 58.3345H262.159V54.8994H272.182L274.33 54.2124L275.761 52.8384M257.864 58.3345H254.284V46.6554M275.761 52.8384H274.33V50.0904H262.875V46.6554H254.284M254.284 46.6554H66.7159M29.4886 28.7932V46.6554H33.7841V50.0904H38.7955V54.2124H48.8182M29.4886 28.7932H25.9091V25.3582H15.1705V29.4802H4.43182V35.6633H9.44318V39.0983H13.7386V43.9073V50.0904H10.1591V55.5864V59.0215H3V66.5785H15.1705V62.4565H19.4659V59.0215H33.0682V63.8305H40.6157V67.9525H58.125V63.8305H66V58.3345M66 58.3345H58.125V54.8994H50.9659L48.8182 54.2124M66 58.3345L66.7159 46.6554M48.8182 54.2124H51.6818V50.0904H59.5568V46.6554H66.7159" stroke="black" stroke-width="3"/>
</g>
<path d="M98 33V21H94V19H106V21H102V33H98ZM108 33V19H122V21H112V25H120V27H112V31H122V33H108ZM128 33V31H126V29H124V23H126V21H128V19H136V21H138V23H134V21H130V23H128V29H130V31H134V29H138V31H136V33H128ZM140 33V19H144V25H150V19H154V33H150V27H144V33H140ZM174 33V31H172V29H176V31H182V27H174V25H172V21H174V19H184V21H186V23H182V21H176V25H184V27H186V31H184V33H174ZM188 33V19H202V21H192V25H200V27H192V31H202V33H188ZM208 33V31H206V29H204V23H206V21H208V19H216V21H218V23H214V21H210V23H208V29H210V31H214V29H218V31H216V33H208Z" fill="black"/>
<rect x="179.113" y="81.6934" width="111.682" height="118.165" rx="12" fill="#D9D9D9"/>
<defs>
<filter id="filter0_d_1404_11059" x="0.5" y="0.5" width="326" height="76.9526" filterUnits="userSpaceOnUse" color-interpolation-filters="sRGB">
<feFlood flood-opacity="0" result="BackgroundImageFix"/>
<feColorMatrix in="SourceAlpha" type="matrix" values="0 0 0 0 0 0 0 0 0 0 0 0 0 0 0 0 0 0 127 0" result="hardAlpha"/>
<feOffset dx="3" dy="4"/>
<feGaussianBlur stdDeviation="2"/>
<feComposite in2="hardAlpha" operator="out"/>
<feColorMatrix type="matrix" values="0 0 0 0 0 0 0 0 0 0 0 0 0 0 0 0 0 0 0.25 0"/>
<feBlend mode="normal" in2="BackgroundImageFix" result="effect1_dropShadow_1404_11059"/>
<feBlend mode="normal" in="SourceGraphic" in2="effect1_dropShadow_1404_11059" result="shape"/>
</filter>
</defs>
</svg>
