<svg width="66" height="66" viewBox="0 0 66 66" fill="none" xmlns="http://www.w3.org/2000/svg">
<rect y="51" width="6" height="9" fill="black"/>
<rect x="14.999" width="6" height="9" transform="rotate(90 14.999 0)" fill="black"/>
<rect x="14.999" y="59.9998" width="6" height="9" transform="rotate(90 14.999 59.9998)" fill="black"/>
<rect y="25.5004" width="6" height="6" fill="black"/>
<rect x="40.5" width="6" height="6" transform="rotate(90 40.5 0)" fill="black"/>
<rect x="40.5" y="59.9998" width="6" height="6" transform="rotate(90 40.5 59.9998)" fill="black"/>
<rect y="40.4996" width="6" height="6" fill="black"/>
<rect x="25.5" width="6" height="6" transform="rotate(90 25.5 0)" fill="black"/>
<rect x="25.5" y="59.9998" width="6" height="6" transform="rotate(90 25.5 59.9998)" fill="black"/>
<rect y="15" width="6" height="4.5" fill="black"/>
<rect x="51.001" width="6" height="4.5" transform="rotate(90 51.001 0)" fill="black"/>
<rect x="51.001" y="59.9998" width="6" height="4.5" transform="rotate(90 51.001 59.9998)" fill="black"/>
<rect x="6" y="46.4999" width="4.5" height="6" transform="rotate(90 6 46.4999)" fill="black"/>
<rect x="19.5" y="6.00024" width="4.5" height="6" transform="rotate(180 19.5 6.00024)" fill="black"/>
<rect x="19.5" y="66" width="4.5" height="6" transform="rotate(180 19.5 66)" fill="black"/>
<rect x="6" y="19.5001" width="6" height="6" transform="rotate(90 6 19.5001)" fill="black"/>
<rect x="46.5" y="6.00024" width="6" height="6" transform="rotate(180 46.5 6.00024)" fill="black"/>
<rect x="46.5" y="66" width="6" height="6" transform="rotate(180 46.5 66)" fill="black"/>
<rect x="6" y="31.5" width="9" height="6" transform="rotate(90 6 31.5)" fill="black"/>
<rect x="34.501" y="6.00024" width="9" height="6" transform="rotate(180 34.501 6.00024)" fill="black"/>
<rect x="36" y="66" width="10.5" height="6" transform="rotate(180 36 66)" fill="black"/>
<rect x="6" y="6.00024" width="9" height="6" transform="rotate(90 6 6.00024)" fill="black"/>
<rect x="60" y="6.00024" width="9" height="6" transform="rotate(180 60 6.00024)" fill="black"/>
<rect x="60" y="66" width="9" height="6" transform="rotate(180 60 66)" fill="black"/>
<rect x="66" y="15" width="6" height="9" transform="rotate(180 66 15)" fill="black"/>
<rect x="66" y="40.4996" width="6" height="6" transform="rotate(180 66 40.4996)" fill="black"/>
<rect x="66" y="25.5004" width="6" height="6" transform="rotate(180 66 25.5004)" fill="black"/>
<rect x="66" y="51" width="6" height="4.5" transform="rotate(180 66 51)" fill="black"/>
<rect x="60" y="19.5001" width="4.5" height="6" transform="rotate(-90 60 19.5001)" fill="black"/>
<rect x="60" y="46.4999" width="6" height="6" transform="rotate(-90 60 46.4999)" fill="black"/>
<rect x="60" y="34.5" width="9" height="6" transform="rotate(-90 60 34.5)" fill="black"/>
<rect x="60" y="59.9998" width="9" height="6" transform="rotate(-90 60 59.9998)" fill="black"/>
<rect x="6" y="6.00024" width="54" height="54" fill="#005125"/>
<rect x="6" y="15" width="54" height="39" fill="#037C3A"/>
<rect x="22.2422" y="19" width="36" height="6" transform="rotate(45 22.2422 19)" fill="white"/>
<rect x="18" y="44.4561" width="36" height="6" transform="rotate(-45 18 44.4561)" fill="white"/>
</svg>
