<svg width="249" height="210" viewBox="0 0 249 210" fill="none" xmlns="http://www.w3.org/2000/svg">
<path d="M128.157 198.509V202.016H136.302V198.509L132.312 198.19V194.841H124.5V190.855H116.854V187.188H109.041V183.361H101.063V180.013H93.2503V176.027H85.4379V172.2H77.6255V168.374H70.1455V164.547H62.1669V160.72H54.3545V157.372H46.5421V153.545H38.3972V149.878H30.9172V146.37H23.271V142.225L15.6248 142.384V138.398H7.64619L7.47997 142.225H11.8017V145.809L19.1155 145.732V149.719H26.9279V153.545H34.5741V157.212H42.5527V160.72H50.3652V164.706H58.0113V168.374H65.99V172.041H73.6362V176.027H81.4486V179.535H89.261V183.361H97.2397V187.188H104.886V190.855H112.698V194.682H120.511V198.509H128.157Z" fill="#DAD6A6"/>
<path d="M3.8231 127.237V130.585V134.492L7.64619 134.571V138.398H15.6248V142.384L23.271 142.225V146.37H30.9172V149.878H38.3972V153.545H46.5421V157.372H54.3545V160.72H62.1669V164.547H70.1455V168.374H77.6255V172.2H85.4379V176.027H93.2503V180.013H101.063V183.361H109.041V187.188H116.854V190.855H124.5V194.841H132.312V198.19L136.302 198.509V202.016H128.157V205.843H136.302H139.959V198.19H148.103V194.682H155.916V190.855H163.562V187.029H171.042V183.361L179.187 183.521V179.854L186.999 179.535V172.36V161.039H183.342V165.025H179.187V168.533H171.541V172.36H167.551V176.186H163.562V179.535H155.916V183.361H151.757L151.927 187.347H148.103V190.855H139.959V194.682H136.302V190.855H139.959V187.347H148.103V183.361H151.757L151.594 179.535H155.916V176.186H163.562V172.36H167.551V168.533H171.541V165.025H179.187V161.039H183.342V157.292V153.545H175.198V149.719H167.551V146.211H159.739V142.384H151.594V138.557H143.782V134.731L136.136 135.05V131.382H128.157V127.715H127.658C125.22 127.821 120.344 127.97 120.344 127.715V123.888H113.197V119.743H105.218V115.916H97.2397V112.887H89.4272V108.582H81.6148V104.755H73.8024V100.928H65.8238V97.5801L58.1776 97.4207V89.9268H65.8238V86.2595L69.9793 86.1001V82.4329H65.8238V86.1001H58.1776V89.6079H54.3545V93.4346H50.3652V97.4207H42.719V100.928H38.7296V104.755H34.7403V108.582H30.9172V112.249H23.271V115.916H19.1155V119.743H15.4586V123.41H7.64619V127.237H3.8231Z" fill="black"/>
<path d="M124.5 112.249H116.355V112.727V113.206V115.916C118.541 115.96 121.625 116.016 124.5 116.058V112.249Z" fill="#0E0D00"/>
<path d="M132.312 119.901V116.076C132.312 116.151 128.621 116.119 124.5 116.058V120.062L132.312 119.901Z" fill="#060600"/>
<path d="M132.312 119.901V123.729L139.959 123.807V119.743L132.312 119.901Z" fill="black"/>
<path d="M147.937 127.715V123.888L139.959 123.807V127.715H147.937Z" fill="black"/>
<path d="M0 130.585V142.384H3.8231V138.398V134.492V130.585H0Z" fill="#0F0E00"/>
<path d="M3.8231 138.398H7.64619V134.571L3.8231 134.492V138.398Z" fill="#DAD6A6"/>
<path d="M3.8231 142.384V145.892L11.8017 145.809V142.225H7.47997L7.64619 138.398H3.8231V142.384Z" fill="#040400"/>
<path d="M19.1155 145.732L11.8017 145.809V149.719H19.1155V145.732Z" fill="black"/>
<path d="M26.9279 149.719H19.1155V153.545H26.9279V149.719Z" fill="black"/>
<path d="M34.5741 153.545H26.9279V157.212H34.5741V153.545Z" fill="black"/>
<path d="M42.5527 157.212H34.5741V160.72H42.5527V157.212Z" fill="black"/>
<path d="M50.3652 160.72H42.5527V164.706H50.3652V160.72Z" fill="black"/>
<path d="M58.0113 164.706H50.3652V168.374H58.0113V164.706Z" fill="black"/>
<path d="M65.99 168.374H58.0113V172.041H65.99V168.374Z" fill="black"/>
<path d="M73.6362 172.041H65.99V176.027H73.6362V172.041Z" fill="black"/>
<path d="M81.4486 176.027H73.6362V179.535H81.4486V176.027Z" fill="black"/>
<path d="M89.261 179.535H81.4486V183.361H89.261V179.535Z" fill="black"/>
<path d="M97.2397 183.361H89.261V187.188H97.2397V183.361Z" fill="black"/>
<path d="M104.886 187.188H97.2397V190.855H104.886V187.188Z" fill="black"/>
<path d="M112.698 190.855H104.886V194.682H112.698V190.855Z" fill="black"/>
<path d="M120.511 194.682H112.698V198.509H120.511V194.682Z" fill="black"/>
<path d="M128.157 202.016V198.509H120.511V202.016H128.157Z" fill="black"/>
<path d="M198.302 176.027H206.447V145.892H202.126V149.719H194.313V153.226H190.656V157.292H186.999V157.531V161.039V172.36V179.535L179.187 179.854V183.521L171.042 183.361V187.029H163.562V190.855H155.916V194.682H148.103V198.19H139.959V205.843H141.909H143.86L143.782 202.176H151.594V198.509H159.573V194.682H167.385V191.015H175.364V187.029H183.342V183.521H190.822V179.854H198.302V176.027Z" fill="#ABA87D"/>
<path d="M93.4166 86.419V89.9268H97.2397L97.2242 86.1001L96.924 11.7989H93.4166V86.419Z" fill="#ABA781"/>
<path d="M101.063 15.3067H116.854V11.7989H105.385H96.924L97.2242 86.1001H101.063V15.3067Z" fill="white"/>
<path d="M109.041 19.1334H104.72L104.886 86.1001H109.041V82.2735V26.4678H116.521V22.6411L109.041 22.4817V19.1334Z" fill="#01008E"/>
<path d="M124.168 29.8162H116.521V26.4678H109.041V82.2735H112.864V86.1001H120.677V89.6079V90.0065L127.824 90.0863V93.594V93.9129H136.136V97.1018V97.899H143.615V100.61V101.407H151.76V105.074H151.927V105.552H159.573V108.422H167.718V112.249V112.727H175.198L175.114 56.4434H171.042V52.9356H163.396V48.7901H155.75V44.804H147.605V41.6151H140.457V37.4695H132.146V33.7209L124.168 33.6428V29.8162Z" fill="#288DFF"/>
<path d="M167.718 116.076H175.198V119.743H179.187V56.4434H175.114L175.198 112.727H167.718V116.076Z" fill="#A6AEF6"/>
<path d="M179.187 127.875V130.904H183.093L182.844 45.7606H190.656V41.4556H198.635V37.6289H190.656V33.9617H182.844V29.9756H175.696V26.6273H167.385V22.8006H159.739V18.655H152.259V15.3067H143.948V11.7989H136.136V7.65335H128.656V3.50775C124.345 3.59635 117.64 3.70464 112.532 3.71773V7.65335H105.385V11.7989H116.854V15.3067H124.832V19.1334H132.146V21.8439H140.457V26.1489H147.937V29.9756H155.75V34.1212H163.396V37.6289H171.042V41.5379L179.187 41.4556V45.1228H171.042V48.7901H179.187V52.9356V56.4434V119.743V123.729H175.198V119.743H167.718V116.076H159.573V112.249H151.927V108.422H143.615V105.074H136.136V100.61H127.824V97.1018H120.677V93.594H112.864V89.6079H101.063V89.9268V93.594H108.875V97.5801H117.02V101.088H124.5V105.074H132.312V108.422H139.959V112.727H147.937V116.076H155.417V120.221H163.562V123.729H171.042V127.875H179.187Z" fill="#DAD6A6"/>
<path d="M190.656 127.715H198.635V41.4556H190.656V45.7606H182.844L183.093 130.904H186.999V135.209H190.656V131.462V127.715Z" fill="#ABA87D"/>
<path d="M210.27 142.384V146.37H213.927V142.384H221.74V138.557H229.718V134.731H237.863V130.904H245.343V116.076H237.531V120.062H229.718V123.889H221.906V127.556L213.927 127.638V131.382H206.447V135.209H198.635V138.557H202.126V142.384H210.27Z" fill="#ABA87D"/>
<path d="M210.27 116.076H206.447V120.062L202.126 120.221L202.292 127.715H198.635V131.382H206.447V127.715L213.927 127.638V123.889H221.906V120.062H229.718V116.076H237.531V112.409H245.343V108.582H237.863V104.755H229.718V100.928H221.906V104.755H218.083V108.582H213.927V112.409H210.27V116.076Z" fill="#ABA77D"/>
<path d="M116.854 15.3067V19.1334H124.832V15.3067H116.854Z" fill="white"/>
<path d="M132.146 19.1334H124.832V21.8439H132.146V19.1334Z" fill="white"/>
<path d="M140.457 21.8439H132.146V26.1489H140.457V21.8439Z" fill="white"/>
<path d="M147.937 26.1489H140.457V29.9756H147.937V26.1489Z" fill="white"/>
<path d="M147.937 33.8023V34.1212H155.75V29.9756H147.937V33.8023Z" fill="white"/>
<path d="M163.396 34.1212H155.75V37.6289H163.396V34.1212Z" fill="white"/>
<path d="M163.396 41.6151V44.804H171.042V41.5379L163.396 41.6151Z" fill="#DAD6A6"/>
<path d="M171.042 37.6289H163.396V41.6151L171.042 41.5379V37.6289Z" fill="white"/>
<path d="M179.187 45.1228V41.4556L171.042 41.5379V44.804V45.1228H179.187Z" fill="white"/>
<path d="M116.854 19.1334L116.521 22.6411L124.168 22.4817V26.4678H132.146V29.8162V30.4539H140.457V33.8023H147.937V29.9756H140.457V26.1489H132.146V21.8439H124.832V19.1334H116.854Z" fill="#DAD6A6"/>
<path d="M147.937 34.1212L147.605 37.4695L155.75 37.6289V34.1212H147.937Z" fill="#DAD6A6"/>
<path d="M155.75 37.6289V41.6151H163.396V37.6289H155.75Z" fill="#DAD6A6"/>
<path d="M109.041 19.1334V22.4817L116.521 22.6411L116.854 19.1334H109.041Z" fill="#ABA781"/>
<path d="M124.168 22.4817L116.521 22.6411V26.4678H124.168V22.4817Z" fill="#ABA781"/>
<path d="M132.146 26.4678H124.168V29.8162H132.146V26.4678Z" fill="#ABA781"/>
<path d="M140.457 30.4539H132.146V33.7209L140.457 33.8023V30.4539Z" fill="#ABA781"/>
<path d="M147.937 34.1212V33.8023H140.457V37.4695H147.605L147.937 34.1212Z" fill="#ABA781"/>
<path d="M155.75 37.6289L147.605 37.4695V41.6151H155.75V37.6289Z" fill="#ABA781"/>
<path d="M163.396 41.6151H155.75V44.804H163.396V41.6151Z" fill="#ABA781"/>
<path d="M171.042 45.1228V44.804H163.396V48.7901H171.042V45.1228Z" fill="#ABA781"/>
<path d="M179.187 48.7901H171.042V52.9356H179.187V48.7901Z" fill="#ABA781"/>
<path d="M124.168 26.4678H116.521V29.8162H124.168V26.4678Z" fill="#01008E"/>
<path d="M132.146 30.4539V29.8162H124.168V33.6428L132.146 33.7209V30.4539Z" fill="#01008E"/>
<path d="M132.146 37.4695H140.457V33.8023L132.146 33.7209V37.4695Z" fill="#01008E"/>
<path d="M140.457 41.6151H147.605V37.4695H140.457V41.6151Z" fill="#01008E"/>
<path d="M147.605 44.804H155.75V41.6151H147.605V44.804Z" fill="#01008E"/>
<path d="M155.75 48.7901H163.396V44.804H155.75V48.7901Z" fill="#01008E"/>
<path d="M163.396 52.9356H171.042V48.7901H163.396V52.9356Z" fill="#01008E"/>
<path d="M179.187 56.4434V52.9356H171.042V56.4434H175.114H179.187Z" fill="#01008E"/>
<path d="M182.844 14.9878H190.656V11.7989H182.844V14.9878Z" fill="black"/>
<path d="M105.385 11.7989V7.65335H96.9072L96.924 11.7989H105.385Z" fill="#ABA781"/>
<path d="M105.385 3.50775V7.65335H112.532V3.71773C108.448 3.7282 105.385 3.67779 105.385 3.50775Z" fill="#ABA781"/>
<path d="M69.9793 78.4468V82.4329H77.6255V78.4468H69.9793Z" fill="#070600"/>
<path d="M85.4379 82.4329H77.6255V86.1001H85.6041V82.4329H85.4379Z" fill="#070600"/>
<path d="M93.4166 86.419H85.6041L85.7704 89.9268H93.4166V86.419Z" fill="#090900"/>
<path d="M93.4166 89.9268V93.594H101.063V89.9268H97.2397H93.4166Z" fill="black"/>
<path d="M101.063 93.594V97.5801H108.875V93.594H101.063Z" fill="#141200"/>
<path d="M108.875 101.088H109.208H117.02V97.5801H108.875V101.088Z" fill="#161400"/>
<path d="M117.02 105.074H124.5V101.088H117.02V105.074Z" fill="black"/>
<path d="M124.5 108.422H132.312V105.074H124.5V108.422Z" fill="#070600"/>
<path d="M132.312 112.727H139.959V108.422H132.312V112.727Z" fill="#040300"/>
<path d="M139.959 116.076H147.937V112.727H139.959V116.076Z" fill="#070600"/>
<path d="M147.937 120.221H155.417V116.076H147.937V120.221Z" fill="#080700"/>
<path d="M155.417 123.729H163.562V120.221H155.417V123.729Z" fill="black"/>
<path d="M163.562 127.875H171.042V123.729H163.562V127.875Z" fill="#0D0C00"/>
<path d="M179.187 130.904V135.209H186.999V130.904H183.093H179.187Z" fill="black"/>
<path d="M194.313 135.209H190.656H186.999V138.557H194.313V135.209Z" fill="#090800"/>
<path d="M202.126 138.557H198.635H194.313V142.384H202.126V138.557Z" fill="black"/>
<path d="M143.948 11.7989V15.3067H152.259V11.7989H143.948Z" fill="black"/>
<path d="M159.739 15.3067H152.259V18.655H159.739V15.3067Z" fill="#0D0C00"/>
<path d="M167.385 18.655H159.739V22.8006H167.385V18.655Z" fill="#040300"/>
<path d="M175.696 22.8006H167.385V26.6273H175.696V22.8006Z" fill="black"/>
<path d="M182.844 26.6273H175.696V29.9756H182.844V26.6273Z" fill="black"/>
<path d="M190.656 29.9756H182.844V33.9617H190.656V29.9756Z" fill="black"/>
<path d="M190.656 37.6289H198.635L198.469 33.9617H190.656V37.6289Z" fill="#0C0B00"/>
<path d="M202.292 116.076V45.1228V41.3759V37.6289H198.635V41.4556V127.715H202.292L202.126 120.221L206.447 120.062V116.076H202.292Z" fill="black"/>
<path d="M213.761 52.4573V56.284H221.906V52.4573H213.761Z" fill="black"/>
<path d="M229.718 48.6306H221.906V52.4573H229.718V48.6306Z" fill="black"/>
<path d="M233.708 56.284L233.541 52.4573H229.718V56.284H233.708Z" fill="black"/>
<path d="M221.906 56.284V60.0147L229.718 60.0782V56.284H221.906Z" fill="#060600"/>
<path d="M214.093 59.9512V63.7779H221.906V60.0147L214.093 59.9512Z" fill="black"/>
<path d="M213.761 67.2857V71.2718L221.906 71.1904V67.3513L213.761 67.2857Z" fill="black"/>
<path d="M214.093 74.7796V78.686H221.906V74.8593L214.093 74.7796Z" fill="black"/>
<path d="M219.413 86.2596H221.906V82.4329H213.761V86.2596H219.413Z" fill="black"/>
<path d="M233.541 63.7779L233.708 60.1106L229.718 60.0782V63.7779H233.541Z" fill="black"/>
<path d="M221.906 63.7779V67.3513L229.718 67.4143V63.7779H221.906Z" fill="black"/>
<path d="M229.718 71.1123H233.541V67.4451L229.718 67.4143V71.1123Z" fill="black"/>
<path d="M229.718 74.939V71.1123L221.906 71.1904V74.8593L229.718 74.939Z" fill="black"/>
<path d="M229.718 82.4329V78.686H221.906V82.4329H229.718Z" fill="black"/>
<path d="M233.541 74.939H229.718V78.686V82.4329V82.5923V93.594H233.541V74.939Z" fill="black"/>
<path d="M229.718 48.6306H233.541V33.8023H229.552L229.718 48.6306Z" fill="black"/>
<path d="M225.729 93.594V97.4207H221.906V100.928H229.718V93.594H225.729Z" fill="black"/>
<path d="M218.083 100.928V104.755H221.906V100.928H218.083Z" fill="#040300"/>
<path d="M213.927 104.755V108.582H218.083V104.755H213.927Z" fill="#090800"/>
<path d="M210.27 108.582V112.409H213.927V108.582H210.27Z" fill="#0B0A00"/>
<path d="M206.447 116.076H210.27V112.409H206.447V116.076Z" fill="#070600"/>
<path d="M237.863 100.928H229.718V104.755H237.863V100.928Z" fill="black"/>
<path d="M237.863 108.582H245.343V104.755H237.863V108.582Z" fill="#0B0A00"/>
<path d="M249 130.904V108.582H245.343V112.409V116.076V130.904H249Z" fill="#121000"/>
<path d="M245.343 112.409H237.531V116.076H245.343V112.409Z" fill="#0D0C00"/>
<path d="M237.531 120.062V116.076H229.718V120.062H237.531Z" fill="#040300"/>
<path d="M229.718 123.889V120.062H221.906V123.889H229.718Z" fill="black"/>
<path d="M221.906 127.556V123.889H213.927V127.638L221.906 127.556Z" fill="#0F0E00"/>
<path d="M213.927 131.382V127.638L206.447 127.715V131.382H213.927Z" fill="#040400"/>
<path d="M206.447 135.209V131.382H198.635V135.209H206.447Z" fill="#090800"/>
<path d="M190.656 135.209H194.313H198.635V131.382V127.715H190.656V131.462V135.209Z" fill="black"/>
<path d="M237.863 130.904V134.731H245.343V130.904H237.863Z" fill="black"/>
<path d="M229.718 134.731V138.557H237.863V134.731H229.718Z" fill="black"/>
<path d="M221.74 138.557V142.384H229.718V138.557H221.74Z" fill="#0B0A00"/>
<path d="M213.927 142.384V146.37H221.74V142.384H213.927Z" fill="#050500"/>
<path d="M210.27 146.37V149.719H213.927V146.37H210.27Z" fill="#0C0B00"/>
<path d="M202.126 145.892H206.447V176.027H210.27V149.719V146.37V142.384H202.126V145.892Z" fill="#0E0D00"/>
<path d="M206.447 176.027H198.302V179.854H206.447V176.027Z" fill="black"/>
<path d="M190.822 179.854V183.521H198.302V179.854H190.822Z" fill="#030300"/>
<path d="M183.342 183.521V187.029H190.822V183.521H183.342Z" fill="black"/>
<path d="M175.364 187.029V191.015H183.342V187.029H175.364Z" fill="#0A0900"/>
<path d="M167.385 191.015V194.682H175.364V191.015H167.385Z" fill="black"/>
<path d="M159.573 194.682V198.509H167.385V194.682H159.573Z" fill="#030300"/>
<path d="M151.594 198.509V202.176H159.573V198.509H151.594Z" fill="#090800"/>
<path d="M143.782 202.176L143.86 205.843H151.594V202.176H143.782Z" fill="black"/>
<path d="M136.302 205.843V209.989H143.948L143.865 206.082L143.86 205.843H141.909H139.959H136.302Z" fill="black"/>
<path d="M190.656 14.9878V18.655H198.469V14.9878H190.656Z" fill="black"/>
<path d="M198.469 22.6411H205.949V18.655H198.469V22.6411Z" fill="black"/>
<path d="M205.949 26.3084H214.093V22.6411H205.949V26.3084Z" fill="black"/>
<path d="M214.093 30.135H221.74V26.3084H214.093V30.135Z" fill="black"/>
<path d="M136.136 11.7989H143.948H152.259H182.844V7.65335H136.136V11.7989Z" fill="black"/>
<path fill-rule="evenodd" clip-rule="evenodd" d="M225.895 37.6289V34.1212L229.552 33.8023L229.718 48.6306H221.906V52.4573H213.761V56.284H221.906V60.0147L214.093 59.9512V63.7779H221.906V67.3513L213.761 67.2857V71.2718L221.906 71.1904V74.8593L214.093 74.7796V78.686H221.906V82.4329H213.761V86.2596H219.413H221.906V82.4329H229.718V82.5923V93.594H225.729V97.4207H221.906V100.928H218.083V104.755H213.927V108.582H210.27V112.409H206.447V116.076H202.292V45.1228H209.605V42.5V41.4556H217.418V37.6289H225.895Z" fill="#ABA87D"/>
<path d="M221.74 34.1212H225.895L229.552 33.8023V30.135H221.74V34.1212Z" fill="#030300"/>
<path d="M136.136 3.50775H128.656V7.65335H136.136V3.50775Z" fill="#050500"/>
<path d="M128.656 3.50775V0H112.532V3.71773C117.64 3.70464 124.345 3.59635 128.656 3.50775Z" fill="black"/>
<path d="M225.895 34.1212H221.74H217.418V37.6289H225.895V34.1212Z" fill="black"/>
<path fill-rule="evenodd" clip-rule="evenodd" d="M190.656 14.9878V18.655H198.469V22.6411H205.949V26.3084H214.093V30.135H221.74V34.1212H217.418V37.6289H209.605V41.4556L202.292 41.3759V37.6289H198.635L198.469 33.9617H190.656V29.9756H182.844V26.6273H175.696V22.8006H167.385V18.655H159.739V15.3067H152.259V11.7989H182.844V14.9878H190.656Z" fill="#DAD6A6"/>
<path d="M217.418 41.4556V37.6289H209.605V41.4556H217.418Z" fill="#0B0A00"/>
<path d="M202.292 45.1228H209.605V42.5V41.4556L202.292 41.3759V45.1228Z" fill="black"/>
<path d="M97.2397 89.9268H101.063V89.6079V86.419V86.1001H97.2242L97.2397 89.9268Z" fill="black"/>
<path d="M112.864 86.419H101.063V89.6079H112.864V86.419Z" fill="black"/>
<path d="M120.677 90.0065V89.6079H112.864V93.594H120.677V90.4051V90.0065Z" fill="black"/>
<path d="M127.824 93.9129V93.594H120.677V97.1018H127.824V93.9129Z" fill="#020200"/>
<path d="M136.136 97.899V97.1018H127.824V100.61H136.136V97.899Z" fill="black"/>
<path d="M143.615 101.407V100.61H136.136V105.074H143.615V101.407Z" fill="#010100"/>
<path d="M151.927 105.074H151.76H143.615V108.422H151.927V105.552V105.074Z" fill="#0B0A00"/>
<path d="M159.573 108.741V108.422H151.927V112.249H159.573V108.741Z" fill="#040400"/>
<path d="M167.718 112.727V112.249H159.573V116.076H167.718V112.727Z" fill="black"/>
<path d="M175.198 116.076H167.718V119.743H175.198V116.076Z" fill="black"/>
<path d="M175.198 123.729H179.187V119.743H175.198V123.729Z" fill="black"/>
<path d="M159.573 108.422V108.741V112.249H167.718V108.422H159.573Z" fill="#A6AEF6"/>
<path d="M159.573 105.552H151.927V108.422H159.573V105.552Z" fill="#A6AEF6"/>
<path d="M151.76 101.407H143.615V105.074H151.76V101.407Z" fill="#A6AEF6"/>
<path d="M143.615 97.899H136.136V100.61H143.615V97.899Z" fill="#A6AEF6"/>
<path d="M136.136 93.9129H127.824V97.1018H136.136V93.9129Z" fill="#A6AEF6"/>
<path d="M120.677 90.0065V90.4051V93.594H127.824V90.0863L120.677 90.0065Z" fill="#A6AEF6"/>
<path d="M112.864 86.1001V86.419V89.6079H120.677V86.1001H112.864Z" fill="#A6AEF6"/>
<path d="M101.063 15.3067V86.1001V86.419H112.864V86.1001V82.2735H109.041V86.1001H104.886L104.72 19.1334H109.041H116.854V15.3067H101.063Z" fill="#A6AEF6"/>
<path d="M136.302 194.682H139.959V190.855H136.302V194.682Z" fill="#999999"/>
<path d="M148.103 190.855V187.347H139.959V190.855H148.103Z" fill="#999999"/>
<path d="M151.927 187.347L151.757 183.361H148.103V187.347H151.927Z" fill="#999999"/>
<path d="M155.916 183.361V179.535H151.594L151.757 183.361H155.916Z" fill="#999999"/>
<path d="M163.562 179.535V176.186H155.916V179.535H163.562Z" fill="#999999"/>
<path d="M167.551 176.186V172.36H163.562V176.186H167.551Z" fill="#999999"/>
<path d="M171.541 172.36V168.533H167.551V172.36H171.541Z" fill="#999999"/>
<path d="M179.187 165.025H171.541V168.533H179.187V165.025Z" fill="#999999"/>
<path d="M183.342 165.025V161.039H179.187V165.025H183.342Z" fill="#999999"/>
<path d="M183.342 161.039H186.999V157.531L183.342 157.292V161.039Z" fill="#999999"/>
<path fill-rule="evenodd" clip-rule="evenodd" d="M101.063 93.594V97.5801H108.875V101.088H109.208H117.02V105.074H124.5V108.422H132.312V112.727H139.959V116.076H147.937V120.221H155.417V123.729H163.562V127.875H171.042V130.904H179.187V135.209H186.999V138.557H194.313V142.384H202.126V145.892V149.719H194.313V153.226H190.656V157.292H186.999H183.342V153.545H175.198V149.719H167.551V146.211H159.739V142.384H151.594V138.557H143.782V134.731L136.136 135.05V131.382H128.157V127.715H127.658C125.22 127.821 120.344 127.97 120.344 127.715V123.888H113.197V119.743H105.218V115.916H97.2397V112.887H89.4272V108.582H81.6148V104.755H73.8024V100.928H65.8238V97.5801L58.1776 97.4207V89.9268H65.8238V86.2595L69.9793 86.1001V82.4329H77.6255V86.1001H85.6041V86.419L85.7704 89.9268H93.4166V93.594H101.063ZM116.355 115.916C118.541 115.96 121.625 116.016 124.5 116.058V120.062L132.312 119.901V123.729L139.959 123.807V127.715H147.937V123.888L139.959 123.807V119.743L132.312 119.901V116.076C132.312 116.151 128.621 116.119 124.5 116.058V112.249H116.355V112.727V113.206V115.916Z" fill="#DAD6A6"/>
<path d="M179.187 130.904V127.875H171.042V130.904H179.187Z" fill="black"/>
<rect x="19.1162" y="127.397" width="3.98932" height="7.33446" fill="white"/>
<rect x="27.4258" y="127.397" width="3.82667" height="7.64619" transform="rotate(90 27.4258 127.397)" fill="white"/>
<rect x="42.7183" y="105.074" width="3.98932" height="7.33446" fill="white"/>
<rect x="58.0103" y="112.409" width="3.98932" height="7.33446" fill="white"/>
<rect x="73.3027" y="119.743" width="3.98932" height="7.33446" fill="white"/>
<rect x="88.5952" y="127.077" width="3.98932" height="7.33446" fill="white"/>
<rect x="103.887" y="134.412" width="3.98932" height="7.33446" fill="white"/>
<rect x="119.18" y="141.746" width="3.98932" height="7.33446" fill="white"/>
<rect x="134.475" y="149.081" width="3.98932" height="7.33446" fill="white"/>
<rect x="149.767" y="156.415" width="3.98932" height="7.33446" fill="white"/>
<rect x="128.157" y="179.375" width="3.98932" height="7.33446" fill="white"/>
<rect x="112.2" y="172.041" width="3.98932" height="7.33446" fill="white"/>
<rect x="96.2412" y="164.706" width="3.98932" height="7.33446" fill="white"/>
<rect x="51.0303" y="142.066" width="3.98932" height="7.33446" fill="white"/>
<rect x="30.752" y="116.555" width="3.98932" height="7.33446" fill="white"/>
<rect x="39.063" y="116.555" width="3.82667" height="7.64619" transform="rotate(90 39.063 116.555)" fill="white"/>
<rect x="46.7085" y="123.888" width="3.98932" height="7.33446" fill="white"/>
<rect x="55.0181" y="123.888" width="3.82667" height="7.64619" transform="rotate(90 55.0181 123.888)" fill="white"/>
<rect x="62.6641" y="131.223" width="3.98932" height="7.33446" fill="white"/>
<rect x="70.9766" y="131.223" width="3.82667" height="7.64619" transform="rotate(90 70.9766 131.223)" fill="white"/>
<rect x="78.623" y="138.557" width="3.98932" height="7.33446" fill="white"/>
<rect x="86.9331" y="138.557" width="3.82667" height="7.64619" transform="rotate(90 86.9331 138.557)" fill="white"/>
<rect x="94.5791" y="145.892" width="3.98932" height="7.33446" fill="white"/>
<rect x="102.891" y="145.892" width="3.82667" height="7.64619" transform="rotate(90 102.891 145.892)" fill="white"/>
<rect x="110.538" y="153.226" width="3.98932" height="7.33446" fill="white"/>
<rect x="118.849" y="153.226" width="3.82667" height="7.64619" transform="rotate(90 118.849 153.226)" fill="white"/>
<rect x="126.494" y="160.561" width="3.98932" height="7.33446" fill="white"/>
<rect x="134.805" y="160.561" width="3.82667" height="7.64619" transform="rotate(90 134.805 160.561)" fill="white"/>
<rect x="142.452" y="167.895" width="3.98932" height="7.33446" fill="white"/>
<rect x="150.763" y="167.895" width="3.82667" height="7.64619" transform="rotate(90 150.763 167.895)" fill="white"/>
<rect x="51.0303" y="105.074" width="3.82667" height="7.64619" transform="rotate(90 51.0303 105.074)" fill="white"/>
<rect x="66.3228" y="112.409" width="3.82667" height="7.64619" transform="rotate(90 66.3228 112.409)" fill="white"/>
<rect x="81.6152" y="119.743" width="3.82667" height="7.64619" transform="rotate(90 81.6152 119.743)" fill="white"/>
<rect x="96.9072" y="127.077" width="3.82667" height="7.64619" transform="rotate(90 96.9072 127.077)" fill="white"/>
<rect x="112.2" y="134.412" width="3.82667" height="7.64619" transform="rotate(90 112.2 134.412)" fill="white"/>
<rect x="127.492" y="141.746" width="3.82667" height="7.64619" transform="rotate(90 127.492 141.746)" fill="white"/>
<rect x="142.784" y="149.081" width="3.82667" height="7.64619" transform="rotate(90 142.784 149.081)" fill="white"/>
<rect x="158.077" y="156.415" width="3.82667" height="7.64619" transform="rotate(90 158.077 156.415)" fill="white"/>
<rect x="136.468" y="179.375" width="3.82667" height="7.64619" transform="rotate(90 136.468 179.375)" fill="white"/>
<rect x="120.511" y="172.041" width="3.82667" height="7.64619" transform="rotate(90 120.511 172.041)" fill="white"/>
<rect x="104.554" y="164.706" width="3.82667" height="7.64619" transform="rotate(90 104.554 164.706)" fill="white"/>
<rect x="59.3403" y="142.066" width="3.82667" height="7.64619" transform="rotate(90 59.3403 142.066)" fill="white"/>
<rect x="34.4082" y="134.732" width="3.98932" height="7.33446" fill="white"/>
<rect x="42.7183" y="134.732" width="3.82667" height="7.64619" transform="rotate(90 42.7183 134.732)" fill="white"/>
<rect x="59.3403" y="145.892" width="8.31108" height="4.14556" fill="white"/>
<rect x="66.3228" y="150.037" width="8.31108" height="4.14556" fill="white"/>
<rect x="73.6362" y="154.183" width="8.31108" height="4.14556" fill="white"/>
<rect x="80.9487" y="158.33" width="8.31108" height="4.14556" fill="white"/>
<rect x="89" y="162" width="8" height="4" fill="white"/>
</svg>
