<svg width="82" height="78" viewBox="0 0 82 78" fill="none" xmlns="http://www.w3.org/2000/svg">
<rect x="12.5" y="12.5" width="66" height="62" fill="#000809" stroke="black" stroke-width="7"/>
<rect x="3.5" y="3.5" width="66" height="62" fill="#FFB3E6" stroke="black" stroke-width="7"/>
<rect x="15" y="20.0713" width="2.84558" height="30.7254" fill="black"/>
<rect x="55.1543" y="20.3691" width="2.84558" height="30.4271" fill="black"/>
<rect x="52.625" y="15" width="2.68475" height="32.25" transform="rotate(90 52.625 15)" fill="black"/>
<rect x="20.375" y="55.8677" width="2.68475" height="32.25" transform="rotate(-90 20.375 55.8677)" fill="black"/>
<rect x="17.5293" y="17.6851" width="2.84558" height="2.68475" fill="black"/>
<rect x="52.625" y="17.6851" width="2.84558" height="2.68475" fill="black"/>
<rect x="52.625" y="50.7964" width="2.84558" height="2.68475" fill="black"/>
<rect x="17.5293" y="50.7964" width="2.84558" height="2.68475" fill="black"/>
<rect x="22.9043" y="30.2134" width="5.37499" height="17.8983" fill="black"/>
<rect x="22.9043" y="22.7559" width="5.37499" height="5.07119" fill="black"/>
<rect x="33.6543" y="30.2134" width="5.37499" height="17.8983" fill="black"/>
<rect x="44.7207" y="33.1968" width="5.37499" height="14.9153" fill="black"/>
<rect x="37.4482" y="32.8984" width="12.647" height="2.68475" fill="black"/>
<rect x="41.875" y="30.2134" width="5.37499" height="2.68475" fill="black"/>
</svg>
