<svg width="53" height="62" viewBox="0 0 53 62" fill="none" xmlns="http://www.w3.org/2000/svg">
<path fill-rule="evenodd" clip-rule="evenodd" d="M44.0324 36.9142L44.3382 34.3942L46.8582 34.7L47.0366 33.23L49.3466 33.5103L50.7226 22.1704L47.1526 21.7372L47.8152 16.2773L45.5052 15.997L45.76 13.897L44.08 13.6931L44.2839 12.0131L42.3939 11.7838L42.6232 9.89383L40.7332 9.66449L41.0135 7.35451L38.2836 7.02324L38.6658 3.87327L19.556 1.55441L19.2247 4.28438L16.7047 3.9786L16.3735 6.70857L13.2235 6.32634L12.8922 9.05631L10.7922 8.80149L10.4355 11.7415L7.91552 11.4357L7.17654 17.5256L4.65656 17.2198L3.35698 27.9297L5.66696 28.21L5.38666 30.52L8.11663 30.8513L7.91277 32.5313L13.5827 33.2193L44.0324 36.9142ZM13.3368 15.9291L13.082 18.0291L10.562 17.7233L10.142 17.6724L9.932 17.6469L9.09109 24.5768L12.0311 24.9336L11.8527 26.4036L16.4726 26.9642L16.7275 24.8642L19.8774 25.2464L20.6419 18.9465L17.9119 18.6152L18.1667 16.5152L13.3368 15.9291ZM38.4337 26.8588L40.7437 27.1392L40.1321 32.1791L40.0117 33.0169L30.1603 31.8214L30.6699 27.6215L32.7699 27.8763L33.0757 25.3563L35.5957 25.6621L35.7486 24.4021L38.6885 24.7589L38.4337 26.8588ZM31.626 16.2306L32.4414 9.51068L36.2214 9.96936L37.0613 10.0713L37.2713 10.0968L36.8891 13.2467L41.7191 13.8328L41.4388 16.1428L39.3388 15.888L39.0585 18.198L36.7485 17.9177L36.5956 19.1776L32.3956 18.668L32.5231 17.618L31.4731 17.4906L31.626 16.2306Z" fill="#DA6749"/>
<path d="M32.4414 9.51068L31.626 16.2306L31.4731 17.4906L32.5231 17.618L32.3956 18.668L36.5956 19.1776L36.7485 17.9177L39.0585 18.198L39.3388 15.888L41.4388 16.1428L41.7191 13.8328L36.8891 13.2467L37.2713 10.0968L37.0613 10.0713L36.2214 9.96936L32.4414 9.51068Z" fill="#DEB97D"/>
<path d="M40.7437 27.1392L38.4337 26.8588L38.6885 24.7589L35.7486 24.4021L35.5957 25.6621L33.0757 25.3563L32.7699 27.8763L30.6699 27.6215L30.1603 31.8214L40.0117 33.0169L40.1321 32.1791L40.7437 27.1392Z" fill="#DEB97D"/>
<path d="M13.082 18.0291L13.3368 15.9291L18.1667 16.5152L17.9119 18.6152L20.6419 18.9465L19.8774 25.2464L16.7275 24.8642L16.4726 26.9642L11.8527 26.4036L12.0311 24.9336L9.09109 24.5768L9.932 17.6469L10.142 17.6724L10.562 17.7233L13.082 18.0291Z" fill="#DEB97D"/>
<path d="M9.932 17.6469L9.09109 24.5768L12.0311 24.9336L11.8527 26.4036L16.4726 26.9642L16.7275 24.8642L19.8774 25.2464L20.6419 18.9465L17.9119 18.6152L18.1667 16.5152L13.3368 15.9291L13.082 18.0291L10.562 17.7233M9.932 17.6469L10.562 17.7233M9.932 17.6469L10.142 17.6724L10.562 17.7233M40.0302 33.0191L40.1321 32.1791M40.1321 32.1791L40.7437 27.1392L38.4337 26.8588L38.6885 24.7589L35.7486 24.4021L35.5957 25.6621L33.0757 25.3563L32.7699 27.8763L30.6699 27.6215L30.1603 31.8214L40.0117 33.0169L40.1321 32.1791ZM37.2713 10.0968L36.8891 13.2467L41.7191 13.8328L41.4388 16.1428L39.3388 15.888L39.0585 18.198L36.7485 17.9177L36.5956 19.1777L32.3956 18.668L32.5231 17.618L31.4731 17.4906L31.626 16.2306L32.4414 9.51068L36.2214 9.96936M37.2713 10.0968L36.2214 9.96936M37.2713 10.0968L37.0613 10.0713L36.2214 9.96936M7.91277 32.5313L8.11663 30.8513L5.38666 30.52L5.66696 28.21L3.35698 27.9297L4.65656 17.2198L7.17654 17.5256L7.91552 11.4357L10.4355 11.7415L10.7922 8.80149L12.8922 9.05631L13.2235 6.32634L16.3735 6.70857L16.7047 3.9786L19.2247 4.28438L19.556 1.55441L38.6658 3.87327L38.2836 7.02324L41.0135 7.35451L40.7332 9.66449L42.6232 9.89383L42.3939 11.7838L44.2839 12.0131L44.08 13.6931L45.76 13.897L45.5052 15.997L47.8152 16.2773L47.1526 21.7372L50.7226 22.1704L49.3466 33.5103L47.0366 33.23L46.8582 34.7L44.3382 34.3942L44.0324 36.9142L13.5827 33.2193L7.91277 32.5313Z" stroke="#BA4C2F" stroke-width="2"/>
<path d="M13.2578 35.8916L11.5567 51.6669L14.0766 51.9727L13.6944 55.1227L15.5844 55.352L15.3296 57.452L29.6094 59.1848L30.0936 55.1948L33.2436 55.5771L33.8042 50.9571L35.9041 51.2119L37.4076 38.822L13.2578 35.8916Z" fill="#DEB97D" stroke="#DAB77C" stroke-width="4"/>
</svg>
