<svg width="380" height="716" viewBox="0 0 380 716" fill="none" xmlns="http://www.w3.org/2000/svg">
<g opacity="0.6">
<mask id="path-1-inside-1_2578_16650" fill="white">
<path d="M380 716H0V0H380V716ZM24 16V24H16V690.046H24V698H356V690H364V24H356V16H24Z"/>
</mask>
<path d="M380 716H0V0H380V716ZM24 16V24H16V690.046H24V698H356V690H364V24H356V16H24Z" fill="#6CBCF4"/>
<path d="M380 716V720H384V716H380ZM0 716H-4V720H0V716ZM0 0V-4H-4V0H0ZM380 0H384V-4H380V0ZM24 16V12H20V16H24ZM24 24V28H28V24H24ZM16 24V20H12V24H16ZM16 690.046H12V694.046H16V690.046ZM24 690.046H28V686.046H24V690.046ZM24 698H20V702H24V698ZM356 698V702H360V698H356ZM356 690V686H352V690H356ZM364 690V694H368V690H364ZM364 24H368V20H364V24ZM356 24H352V28H356V24ZM356 16H360V12H356V16ZM380 716V712H0V716V720H380V716ZM0 716H4V0H0H-4V716H0ZM0 0V4H380V0V-4H0V0ZM380 0H376V716H380H384V0H380ZM24 16H20V24H24H28V16H24ZM24 24V20H16V24V28H24V24ZM16 24H12V690.046H16H20V24H16ZM16 690.046V694.046H24V690.046V686.046H16V690.046ZM24 690.046H20V698H24H28V690.046H24ZM24 698V702H356V698V694H24V698ZM356 698H360V690H356H352V698H356ZM356 690V694H364V690V686H356V690ZM364 690H368V24H364H360V690H364ZM364 24V20H356V24V28H364V24ZM356 24H360V16H356H352V24H356ZM356 16V12H24V16V20H356V16Z" fill="#389CED" mask="url(#path-1-inside-1_2578_16650)"/>
<path d="M356 24H364V690H356V698H24V690.046H16V24H24V16H356V24Z" fill="#9DD7FC"/>
</g>
</svg>
