<svg width="109" height="60" viewBox="0 0 109 60" fill="none" xmlns="http://www.w3.org/2000/svg">
<path d="M22.97 18.1068L56.8455 26.7996L51.5335 47.5005L17.658 38.8078L22.97 18.1068Z" fill="#328EFF"/>
<path d="M99.0323 22.0751L106.074 23.882L105.77 25.0649L98.7287 23.258L99.0323 22.0751Z" fill="#FF0000"/>
<path d="M97.3098 25.6256L105.113 27.6279L104.505 29.9937L96.7027 27.9915L97.3098 25.6256Z" fill="#FF0000"/>
<path d="M96.8063 30.7498L103.848 32.5567L103.544 33.7396L96.5027 31.9327L96.8063 30.7498Z" fill="#FF0000"/>
<path d="M97.8349 32.2746L103.544 33.7396L103.19 35.1197L97.4808 33.6546L97.8349 32.2746Z" fill="#FF0000"/>
<path d="M94.6405 35.2373L102.634 37.2884L102.279 38.6684L94.2864 36.6173L94.6405 35.2373Z" fill="#FF0000"/>
<path d="M94.3876 36.223L102.381 38.2741L102.027 39.6542L94.0334 37.6031L94.3876 36.223Z" fill="#FF0000"/>
<path d="M92.6651 39.7736L99.1357 41.434L98.7816 42.8141L92.311 41.1537L92.6651 39.7736Z" fill="#FF0000"/>
<path d="M92.3615 40.9565L98.8321 42.6169L98.478 43.997L92.0074 42.3366L92.3615 40.9565Z" fill="#FF0000"/>
<path d="M23.2735 16.9239L31.457 19.0238L26.1449 39.7248L17.9615 37.6249L23.2735 16.9239Z" fill="#328EFF"/>
<path d="M23.7577 19.7799L31.9411 21.8798L26.6291 42.5808L18.4457 40.4809L23.7577 19.7799Z" fill="#328EFF"/>
<path d="M96.3172 38.1891L100.885 39.3612L100.278 41.727L95.7101 40.555L96.3172 38.1891Z" fill="#FF9214"/>
<path d="M54.4847 24.9329L61.7166 26.7887L56.4045 47.4897L49.1727 45.6339L54.4847 24.9329Z" fill="#328EFF"/>
<path d="M61.5889 25.7053L66.3467 26.9262L61.0852 47.43L56.3274 46.2091L61.5889 25.7053Z" fill="#328EFF"/>
<path d="M66.207 26.6802L71.3454 27.9987L66.0839 48.5026L60.9455 47.184L66.207 26.6802Z" fill="#328EFF"/>
<path d="M70.8515 29.1328L75.99 30.4514L71.3356 48.5894L66.1972 47.2708L70.8515 29.1328Z" fill="#328EFF"/>
<path d="M75.672 29.3191L80.8104 30.6377L76.156 48.7757L71.0176 47.4571L75.672 29.3191Z" fill="#328EFF"/>
<path d="M80.3671 31.5746L85.1249 32.7955L81.0776 48.5677L76.3198 47.3468L80.3671 31.5746Z" fill="#328EFF"/>
<path d="M86.6427 26.8809L91.4004 28.1018L86.3414 47.817L81.5836 46.5961L86.6427 26.8809Z" fill="#328EFF"/>
<path d="M88.3916 24.8081L95.4332 26.615L90.1717 47.1189L83.1302 45.3119L88.3916 24.8081Z" fill="#328EFF"/>
<path d="M94.2335 17.0613L97.8495 17.9892L93.2457 35.93L89.6298 35.0021L94.2335 17.0613Z" fill="#328EFF"/>
<path d="M90.1912 22.5381L93.8071 23.466L89.2033 41.4069L85.5874 40.479L90.1912 22.5381Z" fill="#328EFF"/>
<path d="M92.181 20.317L95.797 21.2449L91.1932 39.1857L87.5773 38.2579L92.181 20.317Z" fill="#328EFF"/>
<path d="M84.8937 28.9537L88.5096 29.8816L83.9058 47.8225L80.2899 46.8946L84.8937 28.9537Z" fill="#328EFF"/>
<path d="M83.1447 31.0266L86.7607 31.9544L83.0675 46.3465L79.4516 45.4187L83.1447 31.0266Z" fill="#328EFF"/>
<path d="M4.06396 27.7546L5.20583 28.0476L1.76565 41.454L0.623775 41.161L4.06396 27.7546Z" fill="black"/>
<path d="M6.22732 20.1145L7.36919 20.4075L10.8094 7.00119L9.6675 6.70818L6.22732 20.1145Z" fill="black"/>
<path d="M6.53801 28.3895L7.67989 28.6825L4.2397 42.0889L3.09783 41.7959L6.53801 28.3895Z" fill="black"/>
<path d="M8.70137 20.7494L9.84324 21.0424L13.2834 7.63606L12.1416 7.34304L8.70137 20.7494Z" fill="black"/>
<path d="M8.15202 32.3759L9.29389 32.669L13.0376 18.0797L11.8958 17.7867L8.15202 32.3759Z" fill="black"/>
<path d="M1.76565 41.454L3.09783 41.7959L2.74369 43.1759L1.41151 42.8341L1.76565 41.454Z" fill="black"/>
<path d="M10.8094 7.00119L12.1416 7.34304L12.4957 5.96298L11.1635 5.62113L10.8094 7.00119Z" fill="black"/>
<path d="M5.20583 28.0476L6.53801 28.3895L3.09783 41.7959L1.76565 41.454L5.20583 28.0476Z" fill="#FF970F"/>
<path d="M7.36919 20.4075L8.70137 20.7494L12.1416 7.34304L10.8094 7.00119L7.36919 20.4075Z" fill="#FF970F"/>
<path d="M3.46654 26.1304L9.36621 27.6443L9.01207 29.0244L3.1124 27.5105L3.46654 26.1304Z" fill="black"/>
<path d="M5.08545 19.8215L10.9851 21.3354L10.631 22.7155L4.73131 21.2016L5.08545 19.8215Z" fill="black"/>
<path d="M2.48849 24.4085L3.82067 24.7503L3.46654 26.1304L2.13435 25.7885L2.48849 24.4085Z" fill="black"/>
<path d="M3.39913 20.8597L4.73131 21.2016L4.37717 22.5817L3.04499 22.2398L3.39913 20.8597Z" fill="black"/>
<path d="M2.14402 21.7985L3.09558 22.0426L2.48849 24.4085L1.53693 24.1643L2.14402 21.7985Z" fill="black"/>
<path d="M3.04499 22.2398L10.2768 24.0956L9.72034 26.2642L2.48849 24.4085L3.04499 22.2398Z" fill="#FF0000"/>
<path d="M3.82067 24.7503L9.72034 26.2642L9.36621 27.6443L3.46654 26.1304L3.82067 24.7503Z" fill="#FF0000"/>
<path d="M4.73131 21.2016L10.631 22.7155L10.2768 24.0956L4.37717 22.5817L4.73131 21.2016Z" fill="#FF0000"/>
<path d="M9.29389 32.669L10.2455 32.9131L9.58777 35.4761L8.63621 35.2319L9.29389 32.669Z" fill="black"/>
<path d="M13.6953 15.5167L14.6469 15.7609L13.9892 18.3239L13.0376 18.0797L13.6953 15.5167Z" fill="black"/>
<path d="M14.9504 14.578L16.2826 14.9198L15.979 16.1027L14.6469 15.7609L14.9504 14.578Z" fill="black"/>
<path d="M9.58777 35.4761L10.92 35.818L10.6164 37.0009L9.28423 36.659L9.58777 35.4761Z" fill="black"/>
<path d="M16.5355 13.9341L28.1446 16.913L27.841 18.096L16.232 15.117L16.5355 13.9341Z" fill="black"/>
<path d="M54.7882 23.75L83.1447 31.0266L82.8412 32.2095L54.4847 24.9329L54.7882 23.75Z" fill="black"/>
<path d="M78.6182 33.6474L96.3172 38.1891L95.963 39.5692L78.264 35.0275L78.6182 33.6474Z" fill="black"/>
<path d="M99.1817 18.331L98.271 21.8798L96.9388 21.5379L97.8495 17.9892L99.1817 18.331Z" fill="black"/>
<path d="M97.3098 25.6256L96.045 30.5545L94.7128 30.2126L95.9776 25.2838L97.3098 25.6256Z" fill="black"/>
<path d="M94.8935 34.2515L94.0334 37.6031L92.7012 37.2613L93.5613 33.9097L94.8935 34.2515Z" fill="black"/>
<path d="M93.0722 41.349L91.858 46.0806L90.5258 45.7388L91.74 41.0071L93.0722 41.349Z" fill="black"/>
<path d="M98.7287 23.258L95.3031 22.379L95.6066 21.1961L99.0323 22.0751L98.7287 23.258Z" fill="black"/>
<path d="M96.5027 31.9327L93.0771 31.0537L93.3806 29.8708L96.8063 30.7498L96.5027 31.9327Z" fill="black"/>
<path d="M98.071 25.821L94.6454 24.9419L94.949 23.759L98.3746 24.6381L98.071 25.821Z" fill="black"/>
<path d="M95.845 34.4957L92.4194 33.6166L92.723 32.4337L96.1486 33.3128L95.845 34.4957Z" fill="black"/>
<path d="M94.949 23.759L93.6168 23.4172L93.9709 22.0371L95.3031 22.379L94.949 23.759Z" fill="black"/>
<path d="M92.723 32.4337L91.3908 32.0919L91.7449 30.7118L93.0771 31.0537L92.723 32.4337Z" fill="black"/>
<path d="M99.7068 24.9799L98.3746 24.6381L98.7287 23.258L100.061 23.5999L99.7068 24.9799Z" fill="black"/>
<path d="M97.4808 33.6546L96.1486 33.3128L96.5027 31.9327L97.8349 32.2746L97.4808 33.6546Z" fill="black"/>
<path d="M78.2014 36.0621L95.9004 40.6038L95.5463 41.9839L77.8472 37.4421L78.2014 36.0621Z" fill="black"/>
<path d="M10.6164 37.0009L51.5335 47.5005L51.2299 48.6835L10.3129 38.1838L10.6164 37.0009Z" fill="black"/>
<path d="M27.075 11.5954L28.0266 11.8395L26.8124 16.5712L25.8608 16.327L27.075 11.5954Z" fill="black"/>
<path d="M45.7762 16.1841L46.918 16.4771L45.6533 21.4059L44.5114 21.1129L45.7762 16.1841Z" fill="black"/>
<path d="M29.4094 11.9842L30.7415 12.3261L29.4768 17.2549L28.1446 16.913L29.4094 11.9842Z" fill="black"/>
<path d="M48.1105 16.573L49.4427 16.9148L48.1779 21.8436L46.8457 21.5018L48.1105 16.573Z" fill="black"/>
<path d="M29.4768 17.2549L30.4283 17.4991L29.2141 22.2307L28.2626 21.9865L29.4768 17.2549Z" fill="black"/>
<path d="M48.1779 21.8436L49.1295 22.0878L47.9153 26.8195L46.9637 26.5753L48.1779 21.8436Z" fill="black"/>
<path d="M27.1424 16.866L28.094 17.1102L26.8798 21.8419L25.9282 21.5977L27.1424 16.866Z" fill="black"/>
<path d="M45.8436 21.4548L46.7951 21.6989L45.581 26.4306L44.6294 26.1864L45.8436 21.4548Z" fill="black"/>
<path d="M26.8798 21.8419L27.8314 22.086L26.6172 26.8177L25.6656 26.5735L26.8798 21.8419Z" fill="black"/>
<path d="M45.581 26.4306L46.5325 26.6748L45.3183 31.4064L44.3668 31.1622L45.581 26.4306Z" fill="black"/>
<path d="M26.6172 26.8177L27.5687 27.0619L26.304 31.9907L25.3524 31.7465L26.6172 26.8177Z" fill="black"/>
<path d="M45.3183 31.4064L46.2699 31.6506L45.0051 36.5794L44.0536 36.3352L45.3183 31.4064Z" fill="black"/>
<path d="M29.1635 22.4279L30.1151 22.6721L28.9009 27.4037L27.9494 27.1595L29.1635 22.4279Z" fill="black"/>
<path d="M29.2141 22.2307L30.1657 22.4749L28.9515 27.2066L28 26.9624L29.2141 22.2307Z" fill="black"/>
<path d="M47.9153 26.8195L48.8669 27.0636L47.6527 31.7953L46.7011 31.5511L47.9153 26.8195Z" fill="black"/>
<path d="M28.9009 27.4037L29.8525 27.6479L28.5877 32.5767L27.6362 32.3325L28.9009 27.4037Z" fill="black"/>
<path d="M47.6021 31.9925L48.5536 32.2366L47.2889 37.1654L46.3373 36.9213L47.6021 31.9925Z" fill="black"/>
<path d="M27.3882 6.42238L28.3398 6.66656L27.075 11.5954L26.1235 11.3512L27.3882 6.42238Z" fill="black"/>
<path d="M46.0894 11.0111L47.0409 11.2553L45.7762 16.1841L44.8246 15.9399L46.0894 11.0111Z" fill="black"/>
<path d="M29.672 7.00841L30.6235 7.25258L29.3588 12.1814L28.4072 11.9372L29.672 7.00841Z" fill="black"/>
<path d="M48.3731 11.5971L49.3247 11.8413L48.0599 16.7701L47.1084 16.526L48.3731 11.5971Z" fill="black"/>
<path d="M25.078 4.35861L55.7182 12.2212L55.3641 13.6012L24.7239 5.73868L25.078 4.35861Z" fill="black"/>
<path d="M22.158 34.7092L52.7982 42.5717L52.4441 43.9518L21.8039 36.0893L22.158 34.7092Z" fill="black"/>
<path d="M26.0392 0.612719L54.2054 7.8404L53.8513 9.22046L25.6851 1.99279L26.0392 0.612719Z" fill="black"/>
<path d="M23.1193 30.9633L51.2854 38.191L50.9313 39.5711L22.7651 32.3434L23.1193 30.9633Z" fill="black"/>
<path d="M24.7335 1.74861L25.6851 1.99279L25.078 4.35861L24.1264 4.11443L24.7335 1.74861Z" fill="black"/>
<path d="M21.8136 32.0992L22.7651 32.3434L22.158 34.7092L21.2065 34.465L21.8136 32.0992Z" fill="black"/>
<path d="M53.8513 9.22046L56.3253 9.85533L55.9712 11.2354L53.4971 10.6005L53.8513 9.22046Z" fill="black"/>
<path d="M50.9313 39.5711L53.4053 40.2059L53.0512 41.586L50.5771 40.9511L50.9313 39.5711Z" fill="black"/>
<path d="M56.0218 11.0382L57.1636 11.3313L56.8095 12.7113L55.6676 12.4183L56.0218 11.0382Z" fill="black"/>
<path d="M53.1018 41.3888L54.2437 41.6818L53.8895 43.0619L52.7477 42.7689L53.1018 41.3888Z" fill="black"/>
<path d="M25.6851 1.99279L53.8513 9.22046L53.2442 11.5863L25.078 4.35861L25.6851 1.99279Z" fill="#D57740"/>
<path d="M22.7651 32.3434L50.9313 39.5711L50.3242 41.9369L22.158 34.7092L22.7651 32.3434Z" fill="#D57740"/>
<path d="M53.4971 10.6005L55.9712 11.2354L55.7182 12.2212L53.2442 11.5863L53.4971 10.6005Z" fill="#D57740"/>
<path d="M50.5771 40.9511L53.0512 41.586L52.7982 42.5717L50.3242 41.9369L50.5771 40.9511Z" fill="#D57740"/>
<path d="M51.837 46.3176L56.9754 47.6362L56.6719 48.8191L51.5335 47.5005L51.837 46.3176Z" fill="black"/>
<path d="M56.7081 46.3068L61.8465 47.6253L61.5429 48.8083L56.4045 47.4897L56.7081 46.3068Z" fill="black"/>
<path d="M61.3888 46.2471L66.5272 47.5657L66.2236 48.7486L61.0852 47.43L61.3888 46.2471Z" fill="black"/>
<path d="M66.6404 46.3339L71.7789 47.6525L71.4753 48.8354L66.3369 47.5168L66.6404 46.3339Z" fill="black"/>
<path d="M71.3212 46.2742L76.4596 47.5928L76.156 48.7757L71.0176 47.4571L71.3212 46.2742Z" fill="black"/>
<path d="M76.1922 46.2633L81.3306 47.5819L81.0271 48.7648L75.8886 47.4463L76.1922 46.2633Z" fill="black"/>
<path d="M81.6342 46.399L86.7726 47.7176L86.469 48.9005L81.3306 47.5819L81.6342 46.399Z" fill="black"/>
<path d="M86.7461 46.2398L90.362 47.1677L90.0079 48.5478L86.3919 47.6199L86.7461 46.2398Z" fill="black"/>
<path d="M90.5258 45.7388L93.5708 46.5202L93.2167 47.9002L90.1717 47.1189L90.5258 45.7388Z" fill="#D9D9D9"/>
<path d="M21.9414 16.5821L23.2735 16.9239L22.0594 21.6556L20.7272 21.3137L21.9414 16.5821Z" fill="black"/>
<path d="M19.766 25.0596L21.0981 25.4015L19.7322 30.7246L18.4 30.3827L19.766 25.0596Z" fill="black"/>
<path d="M17.4388 34.1286L18.771 34.4705L17.658 38.8078L16.3258 38.466L17.4388 34.1286Z" fill="black"/>
<path d="M19.5853 21.0207L22.0594 21.6556L21.7558 22.8385L19.2818 22.2036L19.5853 21.0207Z" fill="black"/>
<path d="M17.2581 30.0897L19.7322 30.7246L19.4286 31.9075L16.9546 31.2726L17.2581 30.0897Z" fill="black"/>
<path d="M18.9276 23.5837L21.4017 24.2185L21.0981 25.4015L18.6241 24.7666L18.9276 23.5837Z" fill="black"/>
<path d="M16.6004 32.6527L19.0745 33.2875L18.771 34.4705L16.2969 33.8356L16.6004 32.6527Z" fill="black"/>
<path d="M18.1399 21.9106L19.2818 22.2036L18.9276 23.5837L17.7858 23.2907L18.1399 21.9106Z" fill="black"/>
<path d="M15.8127 30.9796L16.9546 31.2726L16.6004 32.6527L15.4586 32.3597L15.8127 30.9796Z" fill="black"/>
<path d="M21.7558 22.8385L22.8977 23.1315L22.5436 24.5115L21.4017 24.2185L21.7558 22.8385Z" fill="black"/>
<path d="M19.4286 31.9075L20.5705 32.2005L20.2164 33.5806L19.0745 33.2875L19.4286 31.9075Z" fill="black"/>
<path d="M19.2818 22.2036L21.7558 22.8385L21.4017 24.2185L18.9276 23.5837L19.2818 22.2036Z" fill="#D57740"/>
<path d="M16.9546 31.2726L19.4286 31.9075L19.0745 33.2875L16.6004 32.6527L16.9546 31.2726Z" fill="#D57740"/>
<path d="M15.155 33.5426L17.4388 34.1286L16.3258 38.466L14.042 37.8799L15.155 33.5426Z" fill="#DF1C1C"/>
<path d="M16.1163 29.7967L18.4 30.3827L19.766 25.0596L17.4822 24.4736L16.1163 29.7967Z" fill="#DF1C1C"/>
<path d="M18.4434 20.7277L20.7272 21.3137L21.9414 16.5821L19.6576 15.996L18.4434 20.7277Z" fill="#DF1C1C"/>
<path d="M15.4586 32.3597L16.6004 32.6527L16.2969 33.8356L15.155 33.5426L15.4586 32.3597Z" fill="#DF1C1C"/>
<path d="M15.8127 30.9796L16.9546 31.2726L17.2581 30.0897L16.1163 29.7967L15.8127 30.9796Z" fill="#DF1C1C"/>
<path d="M18.4434 20.7277L19.5853 21.0207L19.2818 22.2036L18.1399 21.9106L18.4434 20.7277Z" fill="#DF1C1C"/>
<path d="M17.7858 23.2907L18.9276 23.5837L18.6241 24.7666L17.4822 24.4736L17.7858 23.2907Z" fill="#DF1C1C"/>
<path d="M13.0376 18.0797L18.747 19.5448L15.0033 34.134L9.29389 32.669L13.0376 18.0797Z" fill="#FF970F"/>
<path d="M10.2455 32.9131L15.0033 34.134L14.3456 36.697L9.58777 35.4761L10.2455 32.9131Z" fill="#FF970F"/>
<path d="M13.9892 18.3239L18.747 19.5448L19.4047 16.9818L14.6469 15.7609L13.9892 18.3239Z" fill="#FF970F"/>
<path d="M10.92 35.818L14.3456 36.697L14.042 37.8799L10.6164 37.0009L10.92 35.818Z" fill="#FF970F"/>
<path d="M15.979 16.1027L19.4047 16.9818L19.7082 15.7989L16.2826 14.9198L15.979 16.1027Z" fill="#FF970F"/>
<path d="M28.3398 6.66656L29.672 7.00841L28.4072 11.9372L27.075 11.5954L28.3398 6.66656Z" fill="#C41313"/>
<path d="M47.0409 11.2553L48.3731 11.5971L47.1084 16.526L45.7762 16.1841L47.0409 11.2553Z" fill="#C41313"/>
<path d="M28.0772 11.6424L29.4094 11.9842L28.1446 16.913L26.8124 16.5712L28.0772 11.6424Z" fill="#C41313"/>
<path d="M46.918 16.4771L48.2502 16.819L46.9855 21.7478L45.6533 21.4059L46.918 16.4771Z" fill="#C41313"/>
<path d="M28.1446 16.913L29.4768 17.2549L28.212 22.1837L26.8798 21.8419L28.1446 16.913Z" fill="#C41313"/>
<path d="M46.8457 21.5018L48.1779 21.8436L46.9131 26.7724L45.581 26.4306L46.8457 21.5018Z" fill="#C41313"/>
<path d="M27.882 21.8889L29.2141 22.2307L27.9494 27.1595L26.6172 26.8177L27.882 21.8889Z" fill="#C41313"/>
<path d="M46.5831 26.4776L47.9153 26.8195L46.6505 31.7483L45.3183 31.4064L46.5831 26.4776Z" fill="#C41313"/>
<path d="M27.5687 27.0619L28.9009 27.4037L27.6867 32.1354L26.3546 31.7935L27.5687 27.0619Z" fill="#C41313"/>
<path d="M46.3205 31.4535L47.6527 31.7953L46.2867 37.1184L44.9545 36.7766L46.3205 31.4535Z" fill="#C41313"/>
<path d="M18.4963 40.2837L19.4478 40.5279L18.2842 45.0624L17.3327 44.8182L18.4963 40.2837Z" fill="black"/>
<path d="M20.78 40.8698L21.7316 41.1139L20.568 45.6484L19.6164 45.4043L20.78 40.8698Z" fill="black"/>
<path d="M19.4478 40.5279L20.9703 40.9186L19.8067 45.4531L18.2842 45.0624L19.4478 40.5279Z" fill="#0099DD"/>
<path d="M16.0005 44.4764L21.9002 45.9903L21.4954 47.5675L15.5958 46.0536L16.0005 44.4764Z" fill="black"/>
<path d="M12.7627 57.0941L18.6624 58.608L18.3588 59.7909L12.4591 58.277L12.7627 57.0941Z" fill="black"/>
<path d="M14.4539 45.7606L15.5958 46.0536L15.2922 47.2365L14.1504 46.9435L14.4539 45.7606Z" fill="black"/>
<path d="M16.6244 47.5784L20.05 48.4574L19.7465 49.6403L16.3209 48.7613L16.6244 47.5784Z" fill="black"/>
<path d="M21.6761 51.6064L20.7655 55.1552L19.6236 54.8621L20.5342 51.3134L21.6761 51.6064Z" fill="black"/>
<path d="M14.7525 54.873L18.1782 55.752L17.8746 56.935L14.449 56.0559L14.7525 54.873Z" fill="black"/>
<path d="M22.0302 50.2263L23.1721 50.5194L23.4756 49.3364L22.3338 49.0434L22.0302 50.2263Z" fill="black"/>
<path d="M11.6208 56.8011L12.7627 57.0941L13.0662 55.9112L11.9244 55.6182L11.6208 56.8011Z" fill="black"/>
<path d="M19.8042 58.901L18.6624 58.608L18.9659 57.4251L20.1078 57.7181L19.8042 58.901Z" fill="black"/>
<path d="M13.0085 46.6505L14.1504 46.9435L13.8468 48.1264L12.7049 47.8334L13.0085 46.6505Z" fill="black"/>
<path d="M15.179 48.4683L16.3209 48.7613L16.0173 49.9442L14.8754 49.6512L15.179 48.4683Z" fill="black"/>
<path d="M19.7465 49.6403L20.8884 49.9333L20.5848 51.1163L19.4429 50.8232L19.7465 49.6403Z" fill="black"/>
<path d="M13.9142 53.3971L15.0561 53.6901L14.7525 54.873L13.6107 54.58L13.9142 53.3971Z" fill="black"/>
<path d="M18.4817 54.5691L19.6236 54.8621L19.32 56.0451L18.1782 55.752L18.4817 54.5691Z" fill="black"/>
<path d="M21.1919 48.7504L22.3338 49.0434L22.6373 47.8605L21.4954 47.5675L21.1919 48.7504Z" fill="black"/>
<path d="M10.7825 55.3252L11.9244 55.6182L12.2279 54.4353L11.086 54.1423L10.7825 55.3252Z" fill="black"/>
<path d="M21.2496 58.0111L20.1078 57.7181L20.4113 56.5352L21.5532 56.8282L21.2496 58.0111Z" fill="black"/>
<path d="M11.5631 47.5404L12.7049 47.8334L11.086 54.1423L9.94416 53.8493L11.5631 47.5404Z" fill="black"/>
<path d="M23.1721 50.5194L24.314 50.8124L22.6951 57.1212L21.5532 56.8282L23.1721 50.5194Z" fill="black"/>
<path d="M13.7336 49.3582L14.8754 49.6512L13.9142 53.3971L12.7724 53.1041L13.7336 49.3582Z" fill="black"/>
<path d="M14.8754 49.6512L16.0173 49.9442L15.0561 53.6901L13.9142 53.3971L14.8754 49.6512Z" fill="white"/>
<path d="M19.4429 50.8232L20.5848 51.1163L19.6236 54.8621L18.4817 54.5691L19.4429 50.8232Z" fill="white"/>
<path d="M19.7465 49.6403L19.4429 50.8232L16.0173 49.9442L16.3209 48.7613L19.7465 49.6403Z" fill="white"/>
<path d="M18.4817 54.5691L18.1782 55.752L14.7525 54.873L15.0561 53.6901L18.4817 54.5691Z" fill="white"/>
<path d="M16.0173 49.9442L19.4429 50.8232L18.4817 54.5691L15.0561 53.6901L16.0173 49.9442Z" fill="#302E2E"/>
<path d="M15.5958 46.0536L21.4954 47.5675L21.1919 48.7504L15.2922 47.2365L15.5958 46.0536Z" fill="#D9D9D9"/>
<path d="M20.05 48.4574L22.3338 49.0434L22.0302 50.2263L19.7465 49.6403L20.05 48.4574Z" fill="#5E5A5A"/>
<path d="M20.8884 49.9333L23.1721 50.5194L22.818 51.8994L20.5342 51.3134L20.8884 49.9333Z" fill="#5E5A5A"/>
<path d="M21.7267 51.4093L22.8686 51.7023L21.5532 56.8282L20.4113 56.5352L21.7267 51.4093Z" fill="#5E5A5A"/>
<path d="M19.6236 54.8621L20.7655 55.1552L20.1078 57.7181L18.9659 57.4251L19.6236 54.8621Z" fill="#5E5A5A"/>
<path d="M18.1782 55.752L19.32 56.0451L18.6624 58.608L17.5205 58.315L18.1782 55.752Z" fill="#5E5A5A"/>
<path d="M13.4204 54.5311L14.7525 54.873L14.0949 57.436L12.7627 57.0941L13.4204 54.5311Z" fill="#5E5A5A"/>
<path d="M12.582 53.0552L13.9142 53.3971L13.2565 55.96L11.9244 55.6182L12.582 53.0552Z" fill="#5E5A5A"/>
<path d="M12.7049 47.8334L14.0371 48.1752L12.4182 54.4841L11.086 54.1423L12.7049 47.8334Z" fill="#5E5A5A"/>
<path d="M14.449 56.0559L17.8746 56.935L17.5205 58.315L14.0949 57.436L14.449 56.0559Z" fill="#5E5A5A"/>
<path d="M15.5958 46.0536L21.4954 47.5675L21.1919 48.7504L15.2922 47.2365L15.5958 46.0536Z" fill="#5E5A5A"/>
<path d="M14.1504 46.9435L15.4825 47.2853L14.8754 49.6512L13.5433 49.3093L14.1504 46.9435Z" fill="#5E5A5A"/>
<path d="M15.2922 47.2365L16.6244 47.5784L16.3209 48.7613L14.9887 48.4194L15.2922 47.2365Z" fill="#5E5A5A"/>
<path d="M23.8298 47.9564L26.1135 48.5424L25.7594 49.9225L23.4756 49.3364L23.8298 47.9564Z" fill="black"/>
<path d="M25.9497 49.9713L28.2334 50.5573L27.9299 51.7403L25.6462 51.1542L25.9497 49.9713Z" fill="black"/>
<path d="M23.3624 50.5682L25.6462 51.1542L25.292 52.5343L23.0083 51.9483L23.3624 50.5682Z" fill="black"/>
<path d="M24.314 50.8124L25.8365 51.2031L25.5329 52.386L24.0104 51.9953L24.314 50.8124Z" fill="black"/>
<path d="M28.537 49.3744L30.8207 49.9605L30.5172 51.1434L28.2334 50.5573L28.537 49.3744Z" fill="black"/>
<path d="M26.4171 47.3595L28.7008 47.9455L28.3973 49.1284L26.1135 48.5424L26.4171 47.3595Z" fill="black"/>
<path d="M29.0044 46.7626L31.4784 47.3975L31.1243 48.7775L28.6502 48.1427L29.0044 46.7626Z" fill="black"/>
<path d="M31.8325 46.0174L34.3066 46.6523L33.9525 48.0323L31.4784 47.3975L31.8325 46.0174Z" fill="black"/>
<path d="M34.6102 45.4694L37.0842 46.1042L36.7301 47.4843L34.256 46.8494L34.6102 45.4694Z" fill="black"/>
<path d="M37.3372 45.1185L39.4306 45.6557L39.127 46.8386L37.0336 46.3014L37.3372 45.1185Z" fill="black"/>
<path d="M39.127 46.8386L41.6011 47.4734L41.247 48.8535L38.7729 48.2186L39.127 46.8386Z" fill="black"/>
<path d="M36.5398 47.4355L39.0138 48.0703L38.6597 49.4504L36.1856 48.8155L36.5398 47.4355Z" fill="black"/>
<path d="M33.9525 48.0323L36.4265 48.6672L36.0724 50.0473L33.5983 49.4124L33.9525 48.0323Z" fill="black"/>
<path d="M31.1243 48.7775L33.5983 49.4124L33.2442 50.7925L30.7701 50.1576L31.1243 48.7775Z" fill="black"/>
<path d="M41.9046 46.2905L44.1884 46.8765L43.8848 48.0595L41.6011 47.4734L41.9046 46.2905Z" fill="black"/>
<path d="M23.4756 49.3364L25.9497 49.9713L25.6462 51.1542L23.1721 50.5194L23.4756 49.3364Z" fill="#0099DD"/>
<path d="M26.1135 48.5424L28.5876 49.1773L28.2334 50.5573L25.7594 49.9225L26.1135 48.5424Z" fill="#0099DD"/>
<path d="M28.6502 48.1427L31.1243 48.7775L30.8207 49.9605L28.3467 49.3256L28.6502 48.1427Z" fill="#0099DD"/>
<path d="M31.4784 47.3975L33.9525 48.0323L33.5983 49.4124L31.1243 48.7775L31.4784 47.3975Z" fill="#0099DD"/>
<path d="M34.256 46.8494L36.5398 47.4355L36.2362 48.6184L33.9525 48.0323L34.256 46.8494Z" fill="#0099DD"/>
<path d="M37.0336 46.3014L39.127 46.8386L38.8235 48.0215L36.7301 47.4843L37.0336 46.3014Z" fill="#0099DD"/>
<path d="M39.4306 45.6557L41.9046 46.2905L41.6011 47.4734L39.127 46.8386L39.4306 45.6557Z" fill="#0099DD"/>
<path d="M77.3125 34.7833L78.4543 35.0763L78.2014 36.0621L77.0595 35.7691L77.3125 34.7833Z" fill="black"/>
<path d="M95.963 39.5692L97.1049 39.8622L96.8519 40.848L95.7101 40.555L95.963 39.5692Z" fill="black"/>
<path d="M83.7518 28.6607L84.8937 28.9537L84.2866 31.3196L83.1447 31.0266L83.7518 28.6607Z" fill="black"/>
<path d="M85.5008 26.5879L86.6427 26.8809L86.0356 29.2468L84.8937 28.9537L85.5008 26.5879Z" fill="black"/>
<path d="M87.2497 24.5151L88.3916 24.8081L87.7845 27.1739L86.6427 26.8809L87.2497 24.5151Z" fill="black"/>
<path d="M89.0493 22.2451L90.1912 22.5381L89.5841 24.904L88.4422 24.611L89.0493 22.2451Z" fill="black"/>
<path d="M90.9886 20.2212L92.1304 20.5142L91.5234 22.88L90.3815 22.587L90.9886 20.2212Z" fill="black"/>
<path d="M92.7881 17.9512L93.93 18.2442L93.3229 20.61L92.181 20.317L92.7881 17.9512Z" fill="black"/>
<path d="M94.2335 17.0613L95.3754 17.3543L95.0719 18.5372L93.93 18.2442L94.2335 17.0613Z" fill="black"/>
<path d="M104.701 19.7472L105.843 20.0403L105.539 21.2232L104.397 20.9302L104.701 19.7472Z" fill="black"/>
<path d="M99.6296 40.2999L100.581 40.5441L100.227 41.9242L99.2754 41.68L99.6296 40.2999Z" fill="black"/>
<path d="M98.1335 41.387L99.2754 41.68L98.7189 43.8487L97.577 43.5556L98.1335 41.387Z" fill="black"/>
<path d="M96.4352 43.2626L97.577 43.5556L97.2229 44.9357L96.081 44.6427L96.4352 43.2626Z" fill="black"/>
<path d="M94.9392 44.3497L96.081 44.6427L95.6763 46.2199L94.5344 45.9269L94.9392 44.3497Z" fill="black"/>
<path d="M93.4432 45.4367L94.585 45.7298L94.2815 46.9127L93.1396 46.6196L93.4432 45.4367Z" fill="black"/>
<path d="M90.5258 45.7388L93.5708 46.5202L93.2167 47.9002L90.1717 47.1189L90.5258 45.7388Z" fill="black"/>
<path d="M105.539 21.2232L106.681 21.5162L106.023 24.0792L104.881 23.7862L105.539 21.2232Z" fill="black"/>
<path d="M101.239 37.9811L102.381 38.2741L101.723 40.8371L100.581 40.5441L101.239 37.9811Z" fill="black"/>
<path d="M106.074 23.882L107.216 24.175L103.523 38.5671L102.381 38.2741L106.074 23.882Z" fill="black"/>
<path d="M95.679 16.1714L105.004 18.5643L104.701 19.7472L95.3754 17.3543L95.679 16.1714Z" fill="black"/>
<path d="M78.4543 35.0763L95.963 39.5692L95.7101 40.555L78.2014 36.0621L78.4543 35.0763Z" fill="#D57740"/>
<path d="M30.4283 17.4991L32.9024 18.1339L32.5988 19.3168L30.1248 18.682L30.4283 17.4991Z" fill="black"/>
<path d="M33.2059 16.951L35.68 17.5859L35.3764 18.7688L32.9024 18.1339L33.2059 16.951Z" fill="black"/>
<path d="M36.0244 20.1959L38.4985 20.8308L38.195 22.0137L35.7209 21.3788L36.0244 20.1959Z" fill="black"/>
<path d="M38.0046 21.9648L45.2365 23.8206L44.933 25.0035L37.7011 23.1477L38.0046 21.9648Z" fill="black"/>
<path d="M36.0919 25.4665L45.2268 27.8107L44.9233 28.9936L35.7883 26.6495L36.0919 25.4665Z" fill="black"/>
<path d="M33.9213 23.6488L36.3954 24.2836L36.0919 25.4665L33.6178 24.8317L33.9213 23.6488Z" fill="black"/>
<path d="M33.1336 21.9757L34.2755 22.2687L33.9213 23.6488L32.7795 23.3558L33.1336 21.9757Z" fill="black"/>
<path d="M32.2953 20.4998L33.4372 20.7928L33.1336 21.9757L31.9917 21.6827L32.2953 20.4998Z" fill="black"/>
<path d="M31.457 19.0238L32.5988 19.3168L32.2953 20.4998L31.1534 20.2067L31.457 19.0238Z" fill="black"/>
<path d="M35.1861 18.72L36.5183 19.0618L36.2148 20.2447L34.8826 19.9029L35.1861 18.72Z" fill="black"/>
<path d="M32.9024 18.1339L35.1861 18.72L34.579 21.0858L32.2953 20.4998L32.9024 18.1339Z" fill="#D79563"/>
<path d="M33.7407 19.6099L36.0244 20.1959L35.4174 22.5617L33.1336 21.9757L33.7407 19.6099Z" fill="#D79563"/>
<path d="M34.579 21.0858L38.0046 21.9648L37.347 24.5278L33.9213 23.6488L34.579 21.0858Z" fill="#D79563"/>
<path d="M36.7495 22.9036L44.933 25.0035L44.2753 27.5665L36.0919 25.4665L36.7495 22.9036Z" fill="#D79563"/>
<path d="M38.92 24.7213L45.581 26.4306L45.2268 27.8107L38.5659 26.1014L38.92 24.7213Z" fill="#D79563"/>
<path d="M48.8163 27.2608L50.3388 27.6515L49.9846 29.0316L48.4621 28.6409L48.8163 27.2608Z" fill="black"/>
<path d="M50.6423 26.4686L51.7842 26.7616L51.4806 27.9445L50.3388 27.6515L50.6423 26.4686Z" fill="black"/>
<path d="M52.0877 25.5787L53.2296 25.8717L52.926 27.0546L51.7842 26.7616L52.0877 25.5787Z" fill="black"/>
<path d="M50.4111 22.6268L51.5529 22.9198L51.2494 24.1027L50.1075 23.8097L50.4111 22.6268Z" fill="black"/>
<path d="M48.7753 23.4679L50.1075 23.8097L49.804 24.9926L48.4718 24.6508L48.7753 23.4679Z" fill="black"/>
<path d="M51.8565 21.7369L54.1402 22.3229L53.8367 23.5059L51.5529 22.9198L51.8565 21.7369Z" fill="black"/>
<path d="M53.8367 23.5059L54.7882 23.75L54.1812 26.1159L53.2296 25.8717L53.8367 23.5059Z" fill="black"/>
<path d="M48.4718 24.6508L50.9459 25.2857L50.3894 27.4543L47.9153 26.8195L48.4718 24.6508Z" fill="#D79563"/>
<path d="M50.1075 23.8097L52.3913 24.3958L51.7842 26.7616L49.5004 26.1756L50.1075 23.8097Z" fill="#D79563"/>
<path d="M51.5529 22.9198L53.8367 23.5059L53.2296 25.8717L50.9459 25.2857L51.5529 22.9198Z" fill="#D79563"/>
<path d="M49.4234 24.895L50.9459 25.2857L50.3388 27.6515L48.8163 27.2608L49.4234 24.895Z" fill="#D79563"/>
<path d="M95.3031 22.379L98.7287 23.258L98.3746 24.6381L94.949 23.759L95.3031 22.379Z" fill="#FFF16F"/>
<path d="M93.0771 31.0537L96.5027 31.9327L96.1486 33.3128L92.723 32.4337L93.0771 31.0537Z" fill="#FFF16F"/>
<path d="M99.1817 18.331L104.701 19.7472L104.094 22.1131L98.5746 20.6968L99.1817 18.331Z" fill="#FF9214"/>
<path d="M100.061 23.5999L105.77 25.0649L105.113 27.6279L99.4032 26.1628L100.061 23.5999Z" fill="#FF9214"/>
<path d="M96.7027 27.9915L104.505 29.9937L103.848 32.5567L96.045 30.5545L96.7027 27.9915Z" fill="#FF9214"/>
<path d="M96.1486 33.3128L103.19 35.1197L102.634 37.2884L95.5921 35.4815L96.1486 33.3128Z" fill="#FF9214"/>
<path d="M104.397 20.9302L105.539 21.2232L105.235 22.4061L104.094 22.1131L104.397 20.9302Z" fill="#FF9214"/>
<path d="M98.3746 24.6381L99.7068 24.9799L99.4032 26.1628L98.071 25.821L98.3746 24.6381Z" fill="#FF9214"/>
<path d="M94.8935 34.2515L96.2257 34.5934L95.9727 35.5791L94.6405 35.2373L94.8935 34.2515Z" fill="#FF9214"/>
<path d="M92.7687 42.5319L94.1008 42.8738L93.1902 46.4225L91.858 46.0806L92.7687 42.5319Z" fill="#FF9114"/>
<path d="M94.1008 42.8738L95.2427 43.1668L94.585 45.7298L93.4432 45.4367L94.1008 42.8738Z" fill="#FF9114"/>
<path d="M95.2427 43.1668L96.3846 43.4598L96.081 44.6427L94.9392 44.3497L95.2427 43.1668Z" fill="#FF9114"/>
<path d="M98.5746 20.6968L105.235 22.4061L104.932 23.589L98.271 21.8798L98.5746 20.6968Z" fill="#FF0000"/>
<path d="M106.254 27.9209L107.587 28.2628L106.98 30.6286L105.647 30.2868L106.254 27.9209Z" fill="black"/>
<path d="M107.283 29.4457L108.425 29.7387L107.514 33.2874L106.372 32.9944L107.283 29.4457Z" fill="black"/>
<path d="M106.372 32.9944L107.514 33.2874L107.11 34.8647L105.968 34.5716L106.372 32.9944Z" fill="black"/>
<path d="M105.04 32.6526L106.563 33.0433L105.905 35.6062L104.383 35.2156L105.04 32.6526Z" fill="black"/>
</svg>
