<svg width="95" height="49" viewBox="0 0 95 49" fill="none" xmlns="http://www.w3.org/2000/svg">
<path d="M82.7893 21.4316L94.3706 24.6975L93.8806 26.4353L92.854 26.1458L92.462 27.536L91.4349 27.2464L91.1409 28.2891L90.1139 27.9995L87.7616 36.3408L79.261 33.9437L82.7893 21.4316Z" fill="#F2EBE2"/>
<path d="M11.5823 27.3271L0.000969851 24.0613L0.491015 22.3235L1.51755 22.613L1.90959 21.2227L2.93664 21.5124L3.23067 20.4697L4.25773 20.7593L6.60995 12.418L15.1106 14.8151L11.5823 27.3271Z" fill="#F2EBE2"/>
<rect x="76.0627" y="45.5098" width="16.9112" height="13" transform="rotate(-164.252 76.0627 45.5098)" fill="#F2EBE2"/>
<rect x="43.5081" y="36.3301" width="16.9112" height="13" transform="rotate(-164.252 43.5081 36.3301)" fill="#F2EBE2"/>
<rect width="16.9112" height="13" transform="matrix(-0.962464 -0.27141 -0.27141 0.962464 66.5706 16.8584)" fill="#F2EBE2"/>
<rect width="16.9112" height="13" transform="matrix(-0.962464 -0.27141 -0.27141 0.962464 34.0159 7.67871)" fill="#F2EBE2"/>
<rect x="66.5706" y="16.8584" width="16.9112" height="13" transform="rotate(15.7482 66.5706 16.8584)" fill="#040101"/>
<rect x="34.0159" y="7.67871" width="16.9112" height="13" transform="rotate(15.7482 34.0159 7.67871)" fill="#040101"/>
<rect width="16.9112" height="13" transform="matrix(0.962464 0.27141 0.27141 -0.962464 43.5081 36.3301)" fill="#040101"/>
<rect width="16.9112" height="13" transform="matrix(0.962464 0.27141 0.27141 -0.962464 10.9573 27.1504)" fill="#040101"/>
<path d="M87.5823 48.7598L76.001 45.4939L79.5293 32.9819L88.0294 35.3789L85.5792 44.0678L86.2639 44.2609L86.0679 44.956L86.7526 45.149L86.4586 46.1917L87.4856 46.4813L87.1916 47.524L87.8763 47.7171L87.5823 48.7598Z" fill="#040101"/>
<path d="M6.7854 0L18.3667 3.26587L14.8384 15.7779L6.33825 13.3809L8.78848 4.692L8.10377 4.49891L8.29979 3.8038L7.61508 3.61072L7.90911 2.56805L6.88205 2.27842L7.17608 1.23575L6.49137 1.04267L6.7854 0Z" fill="#040101"/>
</svg>
